<svg xmlns="http://www.w3.org/2000/svg" viewBox="0 0 500 500"><g id="freepik--Floor--inject-36"><path id="freepik--floor--inject-36" d="M84.79,430.61c-90.87-52.46-90.87-137.51,0-190s238.18-52.46,329,0,90.86,137.51,0,190S175.65,483.08,84.79,430.61Z" style="fill:#f5f5f5"></path></g><g id="freepik--Shadows--inject-36"><path id="freepik--Shadow--inject-36" d="M417.27,282.67c-9,5.21-9,13.66,0,18.88s23.66,5.21,32.69,0,9-13.67,0-18.88S426.29,277.46,417.27,282.67Z" style="fill:#e0e0e0"></path><path id="freepik--shadow--inject-36" d="M71.36,324.29c9,5.22,9,13.67,0,18.88s-23.67,5.21-32.69,0-9-13.66,0-18.88S62.33,319.08,71.36,324.29Z" style="fill:#e0e0e0"></path><path id="freepik--shadow--inject-36" d="M57.25,343.62,209,431.47a2.9,2.9,0,0,0,2.6,0L428.36,306.1c.72-.42.72-1.09,0-1.5L276.6,217a2.84,2.84,0,0,0-2.6,0L57.25,342.12A.79.79,0,0,0,57.25,343.62Z" style="fill:#e0e0e0"></path><path id="freepik--shadow--inject-36" d="M218.13,452.57,196.36,440c-.72-.42-.72-1.09,0-1.49l29.93-16.95a2.92,2.92,0,0,1,2.61,0L250.35,434a.79.79,0,0,1,0,1.5l-29.62,17.12A2.9,2.9,0,0,1,218.13,452.57Z" style="fill:#e0e0e0"></path></g><g id="freepik--Trees--inject-36"><g id="freepik--Tree--inject-36"><rect x="426.44" y="251.05" width="26.21" height="2.14" transform="translate(15.82 530) rotate(-63.1)" style="fill:#263238"></rect><rect x="426.31" y="237" width="2.14" height="21.98" transform="translate(-66.54 262.06) rotate(-31.76)" style="fill:#263238"></rect><path d="M435.41,235.86v56.32a.91.91,0,0,1-.53.74,2.84,2.84,0,0,1-2.54,0,.9.9,0,0,1-.52-.74V235.86Z" style="fill:#263238"></path><circle cx="451.83" cy="218.33" r="26.16" transform="translate(135.53 607.91) rotate(-76.72)" style="fill:#455a64"></circle><path d="M460,211.64c3.37-10.62,7-14.78,4.69-16.07A26.16,26.16,0,1,0,472,235C464.26,237.24,455.65,225.42,460,211.64Z" style="fill:#37474f"></path><path d="M429,225.73a18.39,18.39,0,1,1-18.39-18.38A18.39,18.39,0,0,1,429,225.73Z" style="fill:#455a64"></path><path d="M410.62,207.35a18.29,18.29,0,0,0-10.74,3.47c-.5,11.23,9,22.18,6.37,25.86S397,238.1,394.73,235a18.38,18.38,0,1,0,15.89-27.62Z" style="fill:#37474f"></path><circle cx="433.61" cy="205.91" r="33.73" transform="translate(155.59 597.22) rotate(-80.01)" style="fill:#455a64"></circle><path d="M466.44,213.62a33.72,33.72,0,1,1-57.5-30.69c2.34-2.52,2.48-2.63.18-.19a34.23,34.23,0,0,0-.89,7.7,33.71,33.71,0,0,0,58.21,23.18Z" style="fill:#37474f"></path></g><g id="freepik--tree--inject-36"><rect x="48.01" y="280.64" width="2.14" height="26.21" transform="translate(-127.63 54.01) rotate(-26.91)" style="fill:#263238"></rect><rect x="50.26" y="288.54" width="21.98" height="2.14" transform="translate(-217.24 189.26) rotate(-58.24)" style="fill:#263238"></rect><path d="M53.22,277.48v56.33a.89.89,0,0,0,.52.73,2.84,2.84,0,0,0,2.54,0,.89.89,0,0,0,.52-.73V277.48Z" style="fill:#263238"></path><circle cx="36.79" cy="259.95" r="26.16" transform="translate(-58.74 15.41) rotate(-13.28)" style="fill:#455a64"></circle><path d="M28.6,253.26c-3.38-10.62-7-14.77-4.69-16.07a26.16,26.16,0,1,1-7.29,39.41C24.37,278.86,33,267,28.6,253.26Z" style="fill:#37474f"></path><path d="M59.62,267.36A18.39,18.39,0,1,0,78,249,18.38,18.38,0,0,0,59.62,267.36Z" style="fill:#455a64"></path><path d="M78,249a18.29,18.29,0,0,1,10.74,3.47c.5,11.23-9,22.18-6.37,25.86s9.23,1.42,11.52-1.7A18.38,18.38,0,1,1,78,249Z" style="fill:#37474f"></path><circle cx="55.01" cy="247.53" r="33.73" transform="translate(-42.11 13.3) rotate(-9.99)" style="fill:#455a64"></circle><path d="M22.18,255.24a33.73,33.73,0,1,0,57.51-30.69c-2.35-2.52-2.49-2.62-.19-.19a33.72,33.72,0,0,1-57.32,30.88Z" style="fill:#37474f"></path></g></g><g id="freepik--Building--inject-36"><g id="freepik--Store--inject-36"><g id="freepik--Wall--inject-36"><polygon points="210.31 422.61 73.22 343.31 73.22 164.96 210.31 244.22 210.31 422.61" style="fill:#3E92CC"></polygon><polygon points="210.31 422.61 73.22 343.31 73.22 164.96 210.31 244.22 210.31 422.61" style="fill:#fff;opacity:0.30000000000000004"></polygon></g><g id="freepik--wall--inject-36"><polygon points="210.31 422.61 415.05 304.4 415.05 125.86 210.31 244.22 210.31 422.61" style="fill:#3E92CC"></polygon><polygon points="210.31 422.61 415.05 304.4 415.05 125.86 210.31 244.22 210.31 422.61" style="fill:#fff;opacity:0.6000000000000001"></polygon></g><polygon id="freepik--shadow--inject-36" points="79.36 168.5 73.22 172.04 73.22 188.77 210.31 268.03 415.05 149.67 415.05 138.52 404.08 132.19 394.43 137.77 405.4 144.1 210.31 256.88 78.05 180.41 78.05 180.41 89.02 174.07 79.36 168.5" style="opacity:0.1"></polygon><g id="freepik--Roof--inject-36"><polyline points="276.73 51.71 276.73 62.85 395.74 131.44 405.4 125.86 276.73 51.71" style="fill:#3E92CC"></polyline><polyline points="276.73 51.71 276.73 62.85 395.74 131.44 405.4 125.86 276.73 51.71" style="fill:#fff;opacity:0.6000000000000001"></polyline><polyline points="276.73 51.71 276.73 62.85 395.74 131.44 405.4 125.86 276.73 51.71" style="opacity:0.15"></polyline><polyline points="210.31 249.79 62.33 164.45 62.33 175.6 210.31 260.94 210.31 249.79" style="fill:#3E92CC"></polyline><polyline points="210.31 249.79 62.33 164.45 62.33 175.6 210.31 260.94 210.31 249.79" style="fill:#fff;opacity:0.6000000000000001"></polyline><path d="M286.38,46.13l-9.65-5.57L62.33,164.45l148,85.34,214.4-123.93ZM210.16,238.58,81.64,164.45h0L276.73,51.71,405.4,125.86Z" style="fill:#3E92CC"></path><path d="M286.38,46.13l-9.65-5.57L62.33,164.45l148,85.34,214.4-123.93ZM210.16,238.58,81.64,164.45h0L276.73,51.71,405.4,125.86Z" style="fill:#fff;opacity:0.9"></path><polygon points="424.71 125.86 424.71 137.01 210.31 260.94 210.31 249.79 424.71 125.86" style="fill:#3E92CC"></polygon><polygon points="424.71 125.86 424.71 137.01 210.31 260.94 210.31 249.79 424.71 125.86" style="fill:#fff;opacity:0.75"></polygon><polygon points="276.73 51.71 276.73 62.85 91.3 170.02 81.64 164.45 276.73 51.71" style="fill:#3E92CC"></polygon><polygon points="276.73 51.71 276.73 62.85 91.3 170.02 81.64 164.45 276.73 51.71" style="fill:#fff;opacity:0.75"></polygon><polygon points="276.73 62.85 395.74 131.44 210.16 238.58 91.3 170.02 276.73 62.85" style="fill:#3E92CC"></polygon><polygon points="276.73 62.85 395.74 131.44 210.16 238.58 91.3 170.02 276.73 62.85" style="opacity:0.2"></polygon><polygon points="387.96 135.93 266.43 68.8 276.73 51.71 405.4 125.86 387.96 135.93" style="opacity:0.1"></polygon><path d="M142.48,146.37l-34,19.67c-1.85,1.07-1.85,2.8,0,3.87l41.37,23.78a7.44,7.44,0,0,0,6.72,0L190.58,174c1.85-1.07,1.85-2.81,0-3.87L149.2,146.37A7.44,7.44,0,0,0,142.48,146.37Z" style="opacity:0.1"></path><polygon points="145.99 134.38 116.46 151.43 148.12 169.73 177.65 152.68 145.99 134.38" style="fill:#fafafa"></polygon><polygon points="116.46 151.43 116.46 168.48 148.12 186.77 148.12 169.73 116.46 151.43" style="fill:#e0e0e0"></polygon><polygon points="177.65 152.68 177.65 169.72 148.12 186.77 148.12 169.73 177.65 152.68" style="fill:#f0f0f0"></polygon><path d="M136.29,145.83c-5.36,3.1-5.36,8.11,0,11.21s14.05,3.09,19.41,0,5.36-8.11,0-11.2S141.65,142.74,136.29,145.83Z" style="fill:#e0e0e0"></path><path d="M141.45,149c-2.51,1.33-2.51,3.49,0,4.83a10.82,10.82,0,0,0,9.09,0c2.51-1.33,2.51-3.49,0-4.82A10.85,10.85,0,0,0,141.45,149Z" style="fill:#fafafa"></path><path d="M163.16,185.74c-.8,0-1.45-.37-1.45-.84v-9.39l-4.13-2.41a1.74,1.74,0,0,1-.85-1.84c.08-.89.73-1.53,1.25-1.26l5.91,3.41a1.46,1.46,0,0,1,.73,1.26V184.9C164.62,185.37,164,185.74,163.16,185.74Z" style="fill:#3E92CC"></path><path d="M171.74,180.67c-.8,0-1.46-.38-1.46-.84v-9.4l-4.12-2.4a1.78,1.78,0,0,1-.86-1.85c.09-.88.74-1.53,1.26-1.25l5.91,3.41a1.45,1.45,0,0,1,.72,1.26v10.23C173.19,180.29,172.54,180.67,171.74,180.67Z" style="fill:#3E92CC"></path></g><g id="freepik--Door--inject-36"><polygon points="283.63 267.98 283.63 380.28 232.6 409.74 232.59 297.45 283.63 267.98" style="fill:#3E92CC"></polygon><polygon points="283.63 267.98 283.63 380.28 232.6 409.74 232.59 297.45 283.63 267.98" style="opacity:0.25"></polygon><polygon points="283.63 267.98 279.59 270.32 279.59 377.58 283.63 380.28 283.63 267.98" style="opacity:0.15"></polygon><polygon points="279.59 377.58 283.63 380.28 232.6 409.74 232.6 404.7 279.59 377.58" style="fill:#3E92CC"></polygon><polygon points="279.59 377.58 283.63 380.28 232.6 409.74 232.6 404.7 279.59 377.58" style="fill:#fff;opacity:0.8"></polygon><polygon points="279.59 377.58 232.6 404.7 232.59 297.45 279.59 270.32 279.59 377.58" style="fill:#3E92CC"></polygon><polygon points="279.58 377.58 232.6 404.7 232.59 297.45 279.58 270.32 279.58 377.58" style="fill:#fff;opacity:0.9500000000000001"></polygon><polygon points="279.58 270.32 279.58 278.18 232.59 305.31 232.59 297.45 279.58 270.32" style="opacity:0.1"></polygon><polygon points="258.12 282.69 256.35 283.71 256.35 396.03 258.12 395 258.12 282.69" style="fill:#3E92CC"></polygon><polygon points="258.12 282.69 256.35 283.71 256.35 396.03 258.12 395 258.12 282.69" style="opacity:0.2"></polygon><polygon points="256.35 283.71 256.35 396.03 254.57 395.01 254.57 284.73 256.35 283.71" style="fill:#3E92CC"></polygon><polygon points="256.35 283.71 256.35 396.03 254.57 395.01 254.57 284.73 256.35 283.71" style="opacity:0.4"></polygon><polygon points="283.63 380.28 285.35 381.26 285.35 266.99 283.63 267.98 283.63 380.28" style="fill:#3E92CC"></polygon><polygon points="283.63 380.28 285.35 381.26 285.35 266.99 283.63 267.98 283.63 380.28" style="opacity:0.2"></polygon><polygon points="285.35 381.26 292.15 377.34 292.15 255.21 225.78 293.52 225.78 415.65 232.59 411.73 232.59 297.45 285.35 266.99 285.35 381.26" style="fill:#3E92CC"></polygon><polygon points="292.15 255.21 225.78 293.52 224.09 292.54 290.46 254.22 292.15 255.21" style="fill:#3E92CC"></polygon><polygon points="292.15 255.21 225.78 293.52 224.09 292.54 290.46 254.22 292.15 255.21" style="fill:#fff;opacity:0.5"></polygon><polygon points="225.78 415.65 225.78 293.52 224.09 292.54 224.09 414.68 225.78 415.65" style="fill:#3E92CC"></polygon><polyline points="224.09 292.54 224.09 414.68 225.78 415.65 225.78 293.52" style="opacity:0.2"></polyline></g><g id="freepik--Closed--inject-36"><path d="M261.31,313.05l14.57-8.41c.87-.51,1.58-.1,1.58.91v10a3.51,3.51,0,0,1-1.58,2.73l-14.57,8.41c-.87.5-1.57.09-1.57-.91v-10A3.46,3.46,0,0,1,261.31,313.05Z" style="opacity:0.15"></path><path d="M261.87,313.47l14.57-8.41c.87-.5,1.57-.1,1.57.91v10a3.47,3.47,0,0,1-1.57,2.73l-14.57,8.41c-.87.5-1.57.09-1.57-.91v-10A3.47,3.47,0,0,1,261.87,313.47Z" style="fill:#455a64"></path><path d="M261.79,322.34a4.1,4.1,0,0,1-.32-2,6.45,6.45,0,0,1,.34-2.3,2.39,2.39,0,0,1,1.05-1.3,1.16,1.16,0,0,1,.44-.17c.11,0,.16.06.16.24a2.25,2.25,0,0,1-.07.58c0,.18-.1.27-.17.28a.86.86,0,0,0-.33.11,1.13,1.13,0,0,0-.45.7,5.18,5.18,0,0,0-.15,1.4,3.46,3.46,0,0,0,.15,1.23.3.3,0,0,0,.48.16,1.11,1.11,0,0,0,.16-.12l.18-.16,0,0c.07,0,.12,0,.16.11a1.93,1.93,0,0,1,.05.49.78.78,0,0,1,0,.22.53.53,0,0,1-.12.2l-.23.21a2.73,2.73,0,0,1-.3.21C262.36,322.69,262,322.67,261.79,322.34Z" style="fill:#fafafa"></path><path d="M264.26,321.53a.42.42,0,0,1,0-.21v-5a.51.51,0,0,1,.3-.42l.2-.12c.2-.11.3-.08.3.08v4.25l.76-.44a.08.08,0,0,1,.12,0,.9.9,0,0,1,0,.28v.25a1.39,1.39,0,0,1,0,.32.34.34,0,0,1-.12.16l-1.37.79C264.34,321.56,264.3,321.56,264.26,321.53Z" style="fill:#fafafa"></path><path d="M266.24,317.7c0-1.88.45-3.07,1.34-3.59.44-.25.77-.21,1,.11a3.71,3.71,0,0,1,.34,1.94,6.56,6.56,0,0,1-.34,2.33,2.36,2.36,0,0,1-1,1.26C266.69,320.26,266.24,319.58,266.24,317.7Zm1.65.69a2.11,2.11,0,0,0,.16-.65,8.19,8.19,0,0,0,.06-1.11,6.87,6.87,0,0,0-.06-1.05.78.78,0,0,0-.16-.45.26.26,0,0,0-.3,0,.81.81,0,0,0-.3.33,2,2,0,0,0-.17.64,8.39,8.39,0,0,0-.06,1.11,6.87,6.87,0,0,0,.06,1,.74.74,0,0,0,.17.45.24.24,0,0,0,.3,0A.85.85,0,0,0,267.89,318.39Z" style="fill:#fafafa"></path><path d="M269.8,318.37a.41.41,0,0,1-.36-.1.48.48,0,0,1-.06-.24,1.52,1.52,0,0,1,.08-.49c.05-.19.1-.3.16-.33a.14.14,0,0,1,.13,0l.13,0a.48.48,0,0,0,.36-.05.73.73,0,0,0,.27-.28.84.84,0,0,0,.12-.47.67.67,0,0,0-.06-.32.34.34,0,0,0-.15-.16l-.26-.09a.87.87,0,0,1-.56-.39,1.73,1.73,0,0,1-.18-.91,2.69,2.69,0,0,1,.3-1.28,2,2,0,0,1,.78-.86,1.47,1.47,0,0,1,.37-.13.47.47,0,0,1,.3,0c.06,0,.09.11.09.22a2.09,2.09,0,0,1-.06.47c0,.18-.09.28-.14.31a.28.28,0,0,1-.15,0,.6.6,0,0,0-.61.37.72.72,0,0,0-.08.35.51.51,0,0,0,.1.38.64.64,0,0,0,.31.16l.12,0a.89.89,0,0,1,.51.39,1.84,1.84,0,0,1,.15.86,3.33,3.33,0,0,1-.12.88,2.9,2.9,0,0,1-.37.82,1.93,1.93,0,0,1-.62.59A1.41,1.41,0,0,1,269.8,318.37Z" style="fill:#fafafa"></path><path d="M272,317.06a.32.32,0,0,1-.05-.21V312a.68.68,0,0,1,.05-.27.36.36,0,0,1,.14-.16l1.51-.87c.05,0,.09,0,.11,0a.61.61,0,0,1,0,.28v.25a.86.86,0,0,1,0,.31.24.24,0,0,1-.11.16l-.9.52v1.15l.8-.47c.05,0,.09,0,.11,0a.83.83,0,0,1,0,.28v.25a1.32,1.32,0,0,1,0,.32.27.27,0,0,1-.11.16l-.8.46v1.27l.91-.52a.06.06,0,0,1,.1,0,.61.61,0,0,1,0,.28v.25a.86.86,0,0,1,0,.31.28.28,0,0,1-.1.16l-1.52.88C272.08,317.09,272,317.1,272,317.06Z" style="fill:#fafafa"></path><path d="M274.41,315.66a.39.39,0,0,1,0-.22v-4.88a.62.62,0,0,1,0-.26.29.29,0,0,1,.15-.16l1-.56c.44-.26.77-.22,1,.12a3.89,3.89,0,0,1,.31,1.89,6.74,6.74,0,0,1-.31,2.25,2.29,2.29,0,0,1-1,1.25l-1,.56C274.49,315.69,274.44,315.69,274.41,315.66Zm1.09-1.59a.93.93,0,0,0,.39-.61,6.1,6.1,0,0,0,.12-1.41,4.28,4.28,0,0,0-.12-1.26c-.08-.22-.21-.27-.39-.17l-.32.19v3.45Z" style="fill:#fafafa"></path><path d="M266.2,312h0a.18.18,0,0,1-.14-.21l3-12.93a.19.19,0,0,1,.17-.15h0a.19.19,0,0,1,.18.13l2.95,9.52a.18.18,0,0,1-.12.23.18.18,0,0,1-.23-.12l-2.75-8.88-2.8,12.28A.19.19,0,0,1,266.2,312Z" style="fill:#263238"></path></g><polygon points="224.73 208.98 228.45 206.84 228.45 228.02 224.73 230.17 224.73 208.98" style="fill:#455a64"></polygon><polygon points="373.51 122.98 377.23 120.83 377.23 142.12 373.51 144.27 373.51 122.98" style="fill:#455a64"></polygon><g id="freepik--Sign--inject-36"><path d="M211.33,165.53l162.58-94a2.67,2.67,0,0,1,2.67-.27L383,75a2.67,2.67,0,0,1,1.09,2.45v46a8.46,8.46,0,0,1-3.82,6.62l-162.57,94a2.63,2.63,0,0,1-2.69.26l-6.39-3.69a2.68,2.68,0,0,1-1.12-2.47v-46A8.46,8.46,0,0,1,211.33,165.53Z" style="fill:#f0f0f0"></path><path d="M217.71,224.05a2.63,2.63,0,0,1-2.69.26l-6.39-3.69a2.68,2.68,0,0,1-1.12-2.47v-46a7.84,7.84,0,0,1,1.12-3.76l6.38,3.69,41.9,29.34Z" style="fill:#e0e0e0"></path><path d="M380.28,75.2l-162.57,94a8.43,8.43,0,0,0-3.82,6.62v46c0,2.43,1.71,3.42,3.82,2.2l162.57-94a8.46,8.46,0,0,0,3.82-6.62v-46C384.1,75,382.39,74,380.28,75.2Z" style="fill:#fafafa"></path></g><g id="freepik--Text--inject-36"><path d="M225.71,191.68c-1.43.83-2.39-.09-2.39-2.3a5.86,5.86,0,0,1,2.39-5c1.43-.82,2.38.1,2.38,2.3A5.85,5.85,0,0,1,225.71,191.68Z" style="fill:#3E92CC"></path><path d="M242.28,166.68a11.2,11.2,0,0,1,1.32-2.77l.59-.35v7l-.95.55s-1.08-5.81-4.3-4c-1.9,1.1-3.81,5.14-3.81,14.69s1.91,11.39,4.41,9.94c2.27-1.31,4.41-5.85,4.41-9.52l.6-.35c0,4.23-2.39,9.28-5.49,11.07-5,2.89-8.11-.1-8.11-8.73s3.11-15.19,7.54-17.75A3.15,3.15,0,0,1,242.28,166.68Z" style="fill:#3E92CC"></path><path d="M259,171.73c0,6.06-2.38,11.11-6.32,13.39s-6.32,0-6.32-6.09,2.38-11.11,6.32-13.38S259,165.67,259,171.73Zm-4.05,2.35c0-7.17-1.2-8.31-2.27-7.7s-2.27,3.15-2.27,10.31,1.2,8.31,2.27,7.69S254.93,181.24,254.93,174.08Z" style="fill:#3E92CC"></path><path d="M260.77,163.17v-.92l1.67-1v-1.84c0-3.85,1.91-7.89,5-9.68,2.62-1.52,3.93-.25,3.93,1.76a4.38,4.38,0,0,1-1.78,3.79,3.37,3.37,0,0,1-1,.37V150a1.72,1.72,0,0,0-.71.23c-1,.55-1.67,2.06-1.67,7v1.84l3.81-2.21v.92L266.26,160v15.6l1.43-.27v.55L261,179.75v-.56l1.43-1.37V162.21Z" style="fill:#3E92CC"></path><path d="M271.15,157.18v-.92l1.67-1v-1.84c0-3.85,1.9-7.89,5-9.68,2.62-1.52,3.93-.26,3.93,1.76a4.39,4.39,0,0,1-1.79,3.79,3.25,3.25,0,0,1-1,.37V144a1.86,1.86,0,0,0-.72.22c-.95.56-1.67,2.07-1.67,7v1.84l3.82-2.21v.92l-3.82,2.2v15.61l1.43-.27v.55l-6.68,3.86v-.56l1.44-1.37V156.22Z" style="fill:#3E92CC"></path><path d="M281.4,158.79c0-6.06,2.39-11.11,5.85-13.11s5.72,0,5.72,4a11.7,11.7,0,0,1-.24,2.34,50.74,50.74,0,0,1-7.27,5.31c0,6.06,1.19,7.2,2.86,6.24,1.91-1.1,3.46-4.38,3.46-6.77l.6-.35c0,2.94-1.79,6.73-4.54,8.31C283.79,167.14,281.4,164.85,281.4,158.79Zm7.4-4.64a19.76,19.76,0,0,0,.24-2.89c0-4.41-1-5.33-1.79-4.84s-1.79,2.5-1.79,10A21.93,21.93,0,0,0,288.8,154.15Z" style="fill:#3E92CC"></path><path d="M295,150.94c0-6.06,2.38-11.11,5.84-13.11s5.73,0,5.73,4a11.7,11.7,0,0,1-.24,2.34,50.49,50.49,0,0,1-7.28,5.31c0,6.06,1.2,7.2,2.87,6.24,1.9-1.1,3.46-4.38,3.46-6.77l.59-.35c0,2.94-1.79,6.73-4.53,8.31C297.38,159.29,295,157,295,150.94Zm7.39-4.64a19.76,19.76,0,0,0,.24-2.89c0-4.41-.95-5.33-1.79-4.84s-1.79,2.5-1.79,10A21.93,21.93,0,0,0,302.39,146.3Z" style="fill:#3E92CC"></path><path d="M317.18,142.36c0-5.7-8.47-1.18-8.47-10a11.55,11.55,0,0,1,5.85-9.8,3.18,3.18,0,0,1,3.82.18,11.16,11.16,0,0,1,1.31-2.78l.59-.34v7l-.95.55s-1.08-5.81-4.29-4c-1.2.69-2.27,3-2.27,5.35,0,6.24,8.47,1.72,8.47,9.8a13,13,0,0,1-6.56,10.95c-2.74,1.58-4.3.09-4.3.09a11.16,11.16,0,0,1-1.31,2.78l-.59.34v-7l.95-.56s1.07,5.81,4.77,3.68C316,147.64,317.18,145.11,317.18,142.36Z" style="fill:#3E92CC"></path><path d="M332.21,125.78c0-3.3-.95-4.22-1.79-3.74-1.43.83-2.15,4.18-2.15,4.18v13.59l1.44-.28v.55L323,143.94v-.55l1.43-1.38v-23.5l-1.43.27v-.55l3.1-1.79q2.14-1.25,2.14,2.07v5.87a8.43,8.43,0,0,1,3.11-4.18c2.74-1.58,4.65.26,4.65,3.38v11.75l1.43-.27v.55l-3.1,1.79c-1.44.82-2.15.14-2.15-2.07Z" style="fill:#3E92CC"></path><path d="M351.77,118.16c0,6.06-2.39,11.11-6.32,13.39s-6.32,0-6.32-6.09,2.38-11.11,6.32-13.38S351.77,112.1,351.77,118.16Zm-4.06,2.35c0-7.17-1.19-8.32-2.26-7.7s-2.27,3.15-2.27,10.31,1.2,8.31,2.27,7.69S347.71,127.67,347.71,120.51Z" style="fill:#3E92CC"></path><path d="M355.11,108.16l-1.43.27v-.55l2.14-1.24a1.7,1.7,0,0,1,2.75,1.17s.95-3.86,3.46-5.3c2.74-1.59,4.89.48,4.89,6.91s-2.15,11-5.25,12.76a2.46,2.46,0,0,1-2.74.12v7.16l1.43-.28v.55l-6.68,3.86V133l1.43-1.38Zm3.82,13s.83,1,1.78.44c1.2-.69,2.15-2.71,2.15-9.87,0-7-.95-7.9-1.79-7.41-1.43.82-2.14,4.17-2.14,4.17Z" style="fill:#3E92CC"></path><path d="M372,107.19c-1.43.83-2.38-.09-2.38-2.29s.95-4.23,2.38-5.05,2.39.09,2.39,2.29A5.82,5.82,0,0,1,372,107.19Z" style="fill:#3E92CC"></path><g style="opacity:0.30000000000000004"><path d="M225.71,191.68c-1.43.83-2.39-.09-2.39-2.3a5.86,5.86,0,0,1,2.39-5c1.43-.82,2.38.1,2.38,2.3A5.85,5.85,0,0,1,225.71,191.68Z"></path><path d="M242.28,166.68a11.2,11.2,0,0,1,1.32-2.77l.59-.35v7l-.95.55s-1.08-5.81-4.3-4c-1.9,1.1-3.81,5.14-3.81,14.69s1.91,11.39,4.41,9.94c2.27-1.31,4.41-5.85,4.41-9.52l.6-.35c0,4.23-2.39,9.28-5.49,11.07-5,2.89-8.11-.1-8.11-8.73s3.11-15.19,7.54-17.75A3.15,3.15,0,0,1,242.28,166.68Z"></path><path d="M259,171.73c0,6.06-2.38,11.11-6.32,13.39s-6.32,0-6.32-6.09,2.38-11.11,6.32-13.38S259,165.67,259,171.73Zm-4.05,2.35c0-7.17-1.2-8.31-2.27-7.7s-2.27,3.15-2.27,10.31,1.2,8.31,2.27,7.69S254.93,181.24,254.93,174.08Z"></path><path d="M260.77,163.17v-.92l1.67-1v-1.84c0-3.85,1.91-7.89,5-9.68,2.62-1.52,3.93-.25,3.93,1.76a4.38,4.38,0,0,1-1.78,3.79,3.37,3.37,0,0,1-1,.37V150a1.72,1.72,0,0,0-.71.23c-1,.55-1.67,2.06-1.67,7v1.84l3.81-2.21v.92L266.26,160v15.6l1.43-.27v.55L261,179.75v-.56l1.43-1.37V162.21Z"></path><path d="M271.15,157.18v-.92l1.67-1v-1.84c0-3.85,1.9-7.89,5-9.68,2.62-1.52,3.93-.26,3.93,1.76a4.39,4.39,0,0,1-1.79,3.79,3.25,3.25,0,0,1-1,.37V144a1.86,1.86,0,0,0-.72.22c-.95.56-1.67,2.07-1.67,7v1.84l3.82-2.21v.92l-3.82,2.2v15.61l1.43-.27v.55l-6.68,3.86v-.56l1.44-1.37V156.22Z"></path><path d="M281.4,158.79c0-6.06,2.39-11.11,5.85-13.11s5.72,0,5.72,4a11.7,11.7,0,0,1-.24,2.34,50.74,50.74,0,0,1-7.27,5.31c0,6.06,1.19,7.2,2.86,6.24,1.91-1.1,3.46-4.38,3.46-6.77l.6-.35c0,2.94-1.79,6.73-4.54,8.31C283.79,167.14,281.4,164.85,281.4,158.79Zm7.4-4.64a19.76,19.76,0,0,0,.24-2.89c0-4.41-1-5.33-1.79-4.84s-1.79,2.5-1.79,10A21.93,21.93,0,0,0,288.8,154.15Z"></path><path d="M295,150.94c0-6.06,2.38-11.11,5.84-13.11s5.73,0,5.73,4a11.7,11.7,0,0,1-.24,2.34,50.49,50.49,0,0,1-7.28,5.31c0,6.06,1.2,7.2,2.87,6.24,1.9-1.1,3.46-4.38,3.46-6.77l.59-.35c0,2.94-1.79,6.73-4.53,8.31C297.38,159.29,295,157,295,150.94Zm7.39-4.64a19.76,19.76,0,0,0,.24-2.89c0-4.41-.95-5.33-1.79-4.84s-1.79,2.5-1.79,10A21.93,21.93,0,0,0,302.39,146.3Z"></path><path d="M317.18,142.36c0-5.7-8.47-1.18-8.47-10a11.55,11.55,0,0,1,5.85-9.8,3.18,3.18,0,0,1,3.82.18,11.16,11.16,0,0,1,1.31-2.78l.59-.34v7l-.95.55s-1.08-5.81-4.29-4c-1.2.69-2.27,3-2.27,5.35,0,6.24,8.47,1.72,8.47,9.8a13,13,0,0,1-6.56,10.95c-2.74,1.58-4.3.09-4.3.09a11.16,11.16,0,0,1-1.31,2.78l-.59.34v-7l.95-.56s1.07,5.81,4.77,3.68C316,147.64,317.18,145.11,317.18,142.36Z"></path><path d="M332.21,125.78c0-3.3-.95-4.22-1.79-3.74-1.43.83-2.15,4.18-2.15,4.18v13.59l1.44-.28v.55L323,143.94v-.55l1.43-1.38v-23.5l-1.43.27v-.55l3.1-1.79q2.14-1.25,2.14,2.07v5.87a8.43,8.43,0,0,1,3.11-4.18c2.74-1.58,4.65.26,4.65,3.38v11.75l1.43-.27v.55l-3.1,1.79c-1.44.82-2.15.14-2.15-2.07Z"></path><path d="M351.77,118.16c0,6.06-2.39,11.11-6.32,13.39s-6.32,0-6.32-6.09,2.38-11.11,6.32-13.38S351.77,112.1,351.77,118.16Zm-4.06,2.35c0-7.17-1.19-8.32-2.26-7.7s-2.27,3.15-2.27,10.31,1.2,8.31,2.27,7.69S347.71,127.67,347.71,120.51Z"></path><path d="M355.11,108.16l-1.43.27v-.55l2.14-1.24a1.7,1.7,0,0,1,2.75,1.17s.95-3.86,3.46-5.3c2.74-1.59,4.89.48,4.89,6.91s-2.15,11-5.25,12.76a2.46,2.46,0,0,1-2.74.12v7.16l1.43-.28v.55l-6.68,3.86V133l1.43-1.38Zm3.82,13s.83,1,1.78.44c1.2-.69,2.15-2.71,2.15-9.87,0-7-.95-7.9-1.79-7.41-1.43.82-2.14,4.17-2.14,4.17Z"></path><path d="M372,107.19c-1.43.83-2.38-.09-2.38-2.29s.95-4.23,2.38-5.05,2.39.09,2.39,2.29A5.82,5.82,0,0,1,372,107.19Z"></path></g><polygon points="349.6 133.86 349.6 136.6 223.14 209.61 223.14 206.87 349.6 133.86" style="fill:#455a64"></polygon><polygon points="375.64 118.83 375.64 121.57 364.48 128.01 364.48 125.27 375.64 118.83" style="fill:#455a64"></polygon></g><g id="freepik--Window--inject-36"><polygon points="306.1 253 306.1 341.72 400.07 287.45 400.07 198.76 306.1 253" style="fill:#3E92CC"></polygon><polygon points="306.1 253 306.1 341.72 400.07 287.45 400.07 198.76 306.1 253" style="fill:#3E92CC"></polygon><polygon points="392.82 208.52 310.93 255.81 310.93 330.57 392.82 283.27 392.82 208.52" style="fill:#455a64"></polygon><polygon points="310.93 323.91 310.93 322.4 392.82 275.11 392.82 276.63 310.93 323.91" style="fill:#37474f"></polygon><polygon points="310.93 315.29 310.93 313.78 392.82 266.49 392.82 268.01 310.93 315.29" style="fill:#37474f"></polygon><polygon points="310.93 306.67 310.93 305.16 392.82 257.88 392.82 259.39 310.93 306.67" style="fill:#37474f"></polygon><polygon points="310.93 298.05 310.93 296.54 392.82 249.25 392.82 250.77 310.93 298.05" style="fill:#37474f"></polygon><polygon points="310.93 289.43 310.93 287.92 392.82 240.64 392.82 242.15 310.93 289.43" style="fill:#37474f"></polygon><polygon points="310.93 280.81 310.93 279.3 392.82 232.02 392.82 233.53 310.93 280.81" style="fill:#37474f"></polygon><polygon points="310.93 272.19 310.93 270.68 392.82 223.4 392.82 224.91 310.93 272.19" style="fill:#37474f"></polygon><polygon points="310.93 263.57 310.93 262.06 392.82 214.78 392.82 216.29 310.93 263.57" style="fill:#37474f"></polygon><polygon points="395.24 284.67 392.82 283.27 392.82 208.51 395.24 207.11 395.24 284.67" style="fill:#3E92CC"></polygon><polygon points="395.24 284.67 392.82 283.27 392.82 208.51 395.24 207.11 395.24 284.67" style="opacity:0.2"></polygon><polygon points="306.1 341.72 303.68 340.32 303.68 251.61 306.1 253 306.1 341.72" style="fill:#3E92CC"></polygon><polygon points="306.1 341.72 303.68 340.32 303.68 251.61 306.1 253 306.1 341.72" style="opacity:0.2"></polygon><polygon points="395.24 284.67 392.83 283.27 310.93 330.57 310.93 333.36 395.24 284.67" style="fill:#3E92CC"></polygon><polygon points="395.24 284.67 392.83 283.27 310.93 330.57 310.93 333.36 395.24 284.67" style="fill:#fff;opacity:0.5"></polygon><polygon points="400.07 198.76 397.66 197.37 303.68 251.61 306.1 253.02 400.07 198.76" style="fill:#3E92CC"></polygon><polygon points="400.07 198.76 397.66 197.37 303.68 251.61 306.1 253.02 400.07 198.76" style="fill:#fff;opacity:0.5"></polygon></g><polygon points="297.97 250.7 297.97 239.42 320.76 263.85 297.97 250.7" style="fill:#e0e0e0"></polygon><path d="M428.19,207.5a10.74,10.74,0,0,1-4.86,8.41l-.05,0c-2.68,1.55-4.86.29-4.86-2.8v-5.67l9.77-5.64Z" style="fill:#ebebeb"></path><path d="M408.66,218.77a10.76,10.76,0,0,1-4.86,8.42l-.05,0c-2.69,1.55-4.86.29-4.86-2.81v-5.66l9.77-5.64Z" style="fill:#ebebeb"></path><path d="M389.12,230.05a10.71,10.71,0,0,1-4.85,8.41l0,0c-2.69,1.55-4.86.3-4.86-2.8V230l9.76-5.64Z" style="fill:#ebebeb"></path><path d="M369.59,241.33a10.71,10.71,0,0,1-4.86,8.41l-.05,0c-2.68,1.55-4.85.29-4.85-2.8V241.3l9.76-5.64Z" style="fill:#ebebeb"></path><path d="M350.06,252.6A10.73,10.73,0,0,1,345.2,261l-.05,0c-2.68,1.55-4.85.29-4.85-2.81v-5.67l9.76-5.63Z" style="fill:#ebebeb"></path><path d="M330.53,263.88a10.72,10.72,0,0,1-4.86,8.41l-.05,0c-2.68,1.55-4.86.3-4.86-2.8v-5.67l9.77-5.64Z" style="fill:#ebebeb"></path><polygon points="320.76 263.85 428.19 201.83 405.4 177.4 297.97 239.42 320.76 263.85" style="fill:#fafafa"></polygon><polygon points="330.53 258.21 307.74 233.78 317.5 228.15 340.3 252.57 330.53 258.21" style="fill:#3E92CC"></polygon><polygon points="350.06 246.94 327.27 222.51 337.03 216.87 359.83 241.3 350.06 246.94" style="fill:#3E92CC"></polygon><polygon points="369.59 235.66 346.8 211.23 356.56 205.59 379.36 230.02 369.59 235.66" style="fill:#3E92CC"></polygon><polygon points="389.12 224.38 366.33 199.96 376.1 194.32 398.89 218.75 389.12 224.38" style="fill:#3E92CC"></polygon><polygon points="408.65 213.11 385.86 188.68 395.63 183.04 418.42 207.47 408.65 213.11" style="fill:#3E92CC"></polygon><path d="M418.42,213.14a10.73,10.73,0,0,1-4.86,8.41l-.05,0c-2.68,1.55-4.86.29-4.86-2.81v-5.66l9.77-5.64Z" style="fill:#3E92CC"></path><path d="M398.89,224.41a10.76,10.76,0,0,1-4.86,8.42l0,0c-2.68,1.54-4.86.29-4.86-2.81v-5.67l9.77-5.64Z" style="fill:#3E92CC"></path><path d="M379.36,235.69a10.74,10.74,0,0,1-4.86,8.41l-.05,0c-2.68,1.55-4.86.3-4.86-2.8v-5.67l9.77-5.64Z" style="fill:#3E92CC"></path><path d="M359.83,247a10.75,10.75,0,0,1-4.86,8.41l-.05,0c-2.68,1.55-4.86.29-4.86-2.81v-5.66l9.77-5.64Z" style="fill:#3E92CC"></path><path d="M340.3,258.24a10.76,10.76,0,0,1-4.86,8.42l-.05,0c-2.69,1.54-4.86.29-4.86-2.81v-5.67l9.77-5.64Z" style="fill:#3E92CC"></path><g style="opacity:0.2"><path d="M418.42,213.14a10.73,10.73,0,0,1-4.86,8.41l-.05,0c-2.68,1.55-4.86.29-4.86-2.81v-5.66l9.77-5.64Z"></path><path d="M398.89,224.41a10.76,10.76,0,0,1-4.86,8.42l0,0c-2.68,1.54-4.86.29-4.86-2.81v-5.67l9.77-5.64Z"></path><path d="M379.36,235.69a10.74,10.74,0,0,1-4.86,8.41l-.05,0c-2.68,1.55-4.86.3-4.86-2.8v-5.67l9.77-5.64Z"></path><path d="M359.83,247a10.75,10.75,0,0,1-4.86,8.41l-.05,0c-2.68,1.55-4.86.29-4.86-2.81v-5.66l9.77-5.64Z"></path><path d="M340.3,258.24a10.76,10.76,0,0,1-4.86,8.42l-.05,0c-2.69,1.54-4.86.29-4.86-2.81v-5.67l9.77-5.64Z"></path></g><g style="opacity:0.1"><polygon points="330.53 258.21 307.74 233.78 317.5 228.15 340.3 252.57 330.53 258.21"></polygon><polygon points="350.06 246.94 327.27 222.51 337.03 216.87 359.83 241.3 350.06 246.94"></polygon><polygon points="369.59 235.66 346.8 211.23 356.56 205.59 379.36 230.02 369.59 235.66"></polygon><polygon points="389.12 224.38 366.33 199.96 376.1 194.32 398.89 218.75 389.12 224.38"></polygon><polygon points="408.65 213.11 385.86 188.68 395.63 183.04 418.42 207.47 408.65 213.11"></polygon></g><polygon points="333.58 277.64 374.5 254.02 374.5 284.08 333.58 307.7 333.58 277.64" style="opacity:0.15"></polygon><polygon points="334.73 278.33 375.64 254.71 375.64 284.77 334.73 308.4 334.73 278.33" style="fill:#3E92CC"></polygon><path d="M340.65,279.25a1.91,1.91,0,0,1,.61-.24.64.64,0,0,1,.46.07.7.7,0,0,1,.29.4,2.27,2.27,0,0,1,.1.75,3.38,3.38,0,0,1-.16,1.09,3,3,0,0,1-.45.87l.64,1.52a.25.25,0,0,1,0,.08.4.4,0,0,1,0,.15.27.27,0,0,1-.08.1l-.71.4c-.06,0-.11.05-.14,0a.26.26,0,0,1-.07-.11l-.58-1.37-.48.27V285a.39.39,0,0,1,0,.18.29.29,0,0,1-.1.12l-.67.39s-.08,0-.1,0,0-.07,0-.13v-5.15a.39.39,0,0,1,0-.18.2.2,0,0,1,.1-.12Zm-.59,2.76.59-.34a1,1,0,0,0,.36-.34.91.91,0,0,0,.14-.54c0-.23,0-.35-.14-.38a.44.44,0,0,0-.36.08l-.59.34Z" style="fill:#455a64"></path><path d="M345.31,280.87a.08.08,0,0,1,.1,0,.22.22,0,0,1,0,.13v.84a.58.58,0,0,1,0,.18.32.32,0,0,1-.1.12l-2.46,1.42a.08.08,0,0,1-.1,0,.17.17,0,0,1,0-.13v-5.15a.39.39,0,0,1,0-.18.25.25,0,0,1,.1-.12l2.42-1.39a.06.06,0,0,1,.09,0,.17.17,0,0,1,.05.13v.85a.41.41,0,0,1-.05.17.24.24,0,0,1-.09.12l-1.6.92v.87l1.48-.86a.08.08,0,0,1,.1,0s0,.07,0,.13v.84a.39.39,0,0,1,0,.18.25.25,0,0,1-.1.12l-1.48.86v.89Z" style="fill:#455a64"></path><path d="M346.05,279.94a.08.08,0,0,1-.1,0,.22.22,0,0,1,0-.13V279a.58.58,0,0,1,0-.18.32.32,0,0,1,.1-.12l1.64-.94a.08.08,0,0,1,.1,0,.17.17,0,0,1,0,.12v.81a.47.47,0,0,1,0,.17.49.49,0,0,1-.1.13Z" style="fill:#455a64"></path><path d="M348.35,276.88a5.87,5.87,0,0,1,.13-.91,4.1,4.1,0,0,1,.32-.87,3.38,3.38,0,0,1,.5-.75,2.56,2.56,0,0,1,.67-.56,1.35,1.35,0,0,1,.68-.22.8.8,0,0,1,.5.17,1.16,1.16,0,0,1,.31.51,2.47,2.47,0,0,1,.13.77c0,.22,0,.46,0,.71s0,.49,0,.71a4.08,4.08,0,0,1-.13.91,4.37,4.37,0,0,1-.31.88,4.26,4.26,0,0,1-.5.75,3,3,0,0,1-.68.56,1.46,1.46,0,0,1-.67.22.71.71,0,0,1-.5-.18,1.14,1.14,0,0,1-.32-.5,3.43,3.43,0,0,1-.13-.77c0-.22,0-.45,0-.7S348.35,277.12,348.35,276.88Zm2.28.07c0-.1,0-.2,0-.32s0-.24,0-.36,0-.25,0-.36,0-.21,0-.3a1.63,1.63,0,0,0-.05-.34.44.44,0,0,0-.13-.21.24.24,0,0,0-.2-.08.48.48,0,0,0-.28.08,1.27,1.27,0,0,0-.28.24,1.65,1.65,0,0,0-.2.31,1.9,1.9,0,0,0-.12.36,2.57,2.57,0,0,0-.06.4c0,.1,0,.2,0,.32v.71c0,.12,0,.22,0,.31a1,1,0,0,0,.18.56c.11.12.27.11.48,0a1.14,1.14,0,0,0,.48-.54A2.41,2.41,0,0,0,350.63,277Z" style="fill:#455a64"></path><path d="M353.82,271.65a1.56,1.56,0,0,1,.6-.23.58.58,0,0,1,.45.09.81.81,0,0,1,.29.42,2.59,2.59,0,0,1,.1.76,4.16,4.16,0,0,1-.1.88,3.26,3.26,0,0,1-.29.74,3.51,3.51,0,0,1-.45.62,3,3,0,0,1-.6.46l-.66.38v1.63a.41.41,0,0,1-.05.18.24.24,0,0,1-.09.12l-.68.39a.08.08,0,0,1-.1,0,.15.15,0,0,1,0-.12V272.8a.39.39,0,0,1,0-.18.25.25,0,0,1,.1-.12Zm-.66,2.88.63-.37a.89.89,0,0,0,.36-.36,1,1,0,0,0,.15-.56c0-.22-.05-.36-.15-.4a.36.36,0,0,0-.36.06l-.63.37Z" style="fill:#455a64"></path><path d="M358.35,273.34a.08.08,0,0,1,.1,0s0,.07,0,.13v.84a.39.39,0,0,1,0,.18.25.25,0,0,1-.1.12L355.89,276a.06.06,0,0,1-.09,0,.17.17,0,0,1-.05-.13v-5.15a.41.41,0,0,1,.05-.18.24.24,0,0,1,.09-.12l2.42-1.4a.08.08,0,0,1,.1,0,.17.17,0,0,1,0,.13V270a.39.39,0,0,1,0,.18.25.25,0,0,1-.1.12l-1.6.92v.87l1.49-.86a.06.06,0,0,1,.09,0,.15.15,0,0,1,0,.12v.85a.41.41,0,0,1,0,.18.29.29,0,0,1-.09.12l-1.49.85v.9Z" style="fill:#455a64"></path><path d="M361.45,272.83c-.06,0-.11,0-.15,0l-.07-.07-1.18-2v2.69a.58.58,0,0,1,0,.18.25.25,0,0,1-.1.12l-.68.39a.08.08,0,0,1-.1,0s0-.06,0-.12v-5.16a.39.39,0,0,1,0-.18.4.4,0,0,1,.1-.12l.54-.31a.14.14,0,0,1,.14,0l.07.07,1.19,2.05v-2.7a.39.39,0,0,1,0-.18.4.4,0,0,1,.1-.12l.68-.39a.06.06,0,0,1,.09,0,.17.17,0,0,1,.05.13v5.15a.41.41,0,0,1-.05.18.24.24,0,0,1-.09.12Z" style="fill:#455a64"></path><path d="M363,271.94a.08.08,0,0,1-.1,0,.2.2,0,0,1,0-.13v-5.15a.58.58,0,0,1,0-.18.25.25,0,0,1,.1-.12l.68-.39a.08.08,0,0,1,.1,0s0,.06,0,.12v5.16a.39.39,0,0,1,0,.18.4.4,0,0,1-.1.12Z" style="fill:#455a64"></path><path d="M366.9,269.69a.14.14,0,0,1-.15,0l-.07-.07-1.18-2v2.7a.37.37,0,0,1-.05.17.24.24,0,0,1-.09.12l-.68.4a.08.08,0,0,1-.1,0,.17.17,0,0,1,0-.13v-5.15a.39.39,0,0,1,0-.18.25.25,0,0,1,.1-.12l.54-.31c.06,0,.1,0,.14,0a.15.15,0,0,1,.07.07l1.19,2v-2.7a.38.38,0,0,1,0-.17.2.2,0,0,1,.1-.12l.68-.39a.06.06,0,0,1,.09,0,.17.17,0,0,1,.05.13v5.16a.37.37,0,0,1-.05.17.24.24,0,0,1-.09.12Z" style="fill:#455a64"></path><path d="M369.79,263.62a1.05,1.05,0,0,0-.3.25,1.29,1.29,0,0,0-.19.32,1.37,1.37,0,0,0-.11.36,2.32,2.32,0,0,0-.05.38c0,.07,0,.17,0,.29v.38c0,.13,0,.26,0,.38a2.36,2.36,0,0,0,0,.29,1.55,1.55,0,0,0,0,.32.55.55,0,0,0,.12.23.25.25,0,0,0,.2.09.64.64,0,0,0,.29-.09,1.16,1.16,0,0,0,.25-.2,1.39,1.39,0,0,0,.21-.27,1.22,1.22,0,0,0,.14-.35,1.52,1.52,0,0,0,.05-.44l-.43.25a.08.08,0,0,1-.1,0,.17.17,0,0,1,0-.13v-.85a.35.35,0,0,1,0-.17.25.25,0,0,1,.1-.12l1.25-.73a.08.08,0,0,1,.1,0,.17.17,0,0,1,0,.13v1a4.07,4.07,0,0,1-.12,1,5,5,0,0,1-.34.89,3.85,3.85,0,0,1-.52.73,2.52,2.52,0,0,1-.63.51,1.32,1.32,0,0,1-.67.22.75.75,0,0,1-.5-.18,1.18,1.18,0,0,1-.32-.51,2.82,2.82,0,0,1-.12-.76c0-.21,0-.44,0-.69s0-.5,0-.73a4.14,4.14,0,0,1,.12-.91,4.54,4.54,0,0,1,.32-.87,3.57,3.57,0,0,1,.5-.76,2.69,2.69,0,0,1,.67-.55,1.47,1.47,0,0,1,.65-.22.89.89,0,0,1,.5.13.93.93,0,0,1,.31.37,1.24,1.24,0,0,1,.13.5.25.25,0,0,1,0,.14.21.21,0,0,1-.08.1l-.69.4q-.07,0-.12,0a.39.39,0,0,1-.08-.1.62.62,0,0,0-.2-.15C370.08,263.49,370,263.53,369.79,263.62Z" style="fill:#455a64"></path><path d="M342.25,286.69a3.09,3.09,0,0,1,1.4-.47,2.05,2.05,0,0,1,1.1.23,1.86,1.86,0,0,1,.72.75,2.34,2.34,0,0,1,.28,1.07.8.8,0,0,1-.08.33.51.51,0,0,1-.17.22l-1.56.9a.47.47,0,0,1-.27.08.49.49,0,0,1-.21-.1l-.11-.12a.64.64,0,0,0-.22-.14.93.93,0,0,0-.35,0,1.47,1.47,0,0,0-.53.2,4.15,4.15,0,0,0-.43.3,2.53,2.53,0,0,0-.37.36,1.7,1.7,0,0,0-.26.43,1.3,1.3,0,0,0-.1.52.59.59,0,0,0,.11.39.51.51,0,0,0,.38.12,3.25,3.25,0,0,0,.71-.11l1.09-.28a3.57,3.57,0,0,1,1.14-.15,1.39,1.39,0,0,1,.82.31,1.69,1.69,0,0,1,.48.82,4.9,4.9,0,0,1,.16,1.4,6.22,6.22,0,0,1-.27,1.82,7.6,7.6,0,0,1-1.93,3.16,7.2,7.2,0,0,1-1.47,1.13,3.68,3.68,0,0,1-1.47.52,2,2,0,0,1-1.15-.21,1.77,1.77,0,0,1-.75-.78,2.61,2.61,0,0,1-.29-1.21.8.8,0,0,1,.08-.33.51.51,0,0,1,.17-.22l1.56-.89a.42.42,0,0,1,.26-.09.39.39,0,0,1,.19.08,1.4,1.4,0,0,1,.14.16,1.09,1.09,0,0,0,.26.19.82.82,0,0,0,.4.07,1.59,1.59,0,0,0,.6-.22,4.45,4.45,0,0,0,1.05-.82,1.46,1.46,0,0,0,.43-1,.4.4,0,0,0-.16-.37.77.77,0,0,0-.46-.07,3.67,3.67,0,0,0-.79.15c-.32.09-.7.19-1.14.29a1.73,1.73,0,0,1-1.79-.31,3.3,3.3,0,0,1-.56-2.19,6.42,6.42,0,0,1,.23-1.64,8.28,8.28,0,0,1,.67-1.65,7.62,7.62,0,0,1,1.07-1.48A5.7,5.7,0,0,1,342.25,286.69Z" style="fill:#455a64"></path><path d="M346.9,289a10.2,10.2,0,0,1,.29-2.1,9.11,9.11,0,0,1,.73-2,8,8,0,0,1,1.14-1.72,5.83,5.83,0,0,1,1.55-1.29,3.21,3.21,0,0,1,1.54-.5,1.75,1.75,0,0,1,1.15.4,2.66,2.66,0,0,1,.73,1.16,6.41,6.41,0,0,1,.29,1.76c0,.51,0,1.06,0,1.63s0,1.12,0,1.63A10.83,10.83,0,0,1,354,290a10.46,10.46,0,0,1-.73,2,8.07,8.07,0,0,1-1.15,1.72,6.08,6.08,0,0,1-1.54,1.28,3.34,3.34,0,0,1-1.55.51,1.67,1.67,0,0,1-1.14-.4,2.58,2.58,0,0,1-.73-1.17,6,6,0,0,1-.29-1.76c0-.49,0-1,0-1.6S346.88,289.49,346.9,289Zm5.22.15c0-.22,0-.47,0-.74s0-.55,0-.83,0-.55,0-.81,0-.49,0-.69a3.33,3.33,0,0,0-.13-.77,1.09,1.09,0,0,0-.28-.5.71.71,0,0,0-.46-.19,1.33,1.33,0,0,0-.64.21,2.35,2.35,0,0,0-.64.53,3,3,0,0,0-.46.72,4.28,4.28,0,0,0-.29.83,5.39,5.39,0,0,0-.12.91c0,.22,0,.46,0,.73s0,.53,0,.81,0,.56,0,.82,0,.51,0,.72a2,2,0,0,0,.41,1.28c.24.26.61.25,1.1,0a2.64,2.64,0,0,0,1.09-1.24A5.05,5.05,0,0,0,352.12,289.11Z" style="fill:#455a64"></path><path d="M355.43,284a10.83,10.83,0,0,1,.29-2.09,9.54,9.54,0,0,1,.73-2,8.29,8.29,0,0,1,1.14-1.72,5.76,5.76,0,0,1,1.55-1.28,3,3,0,0,1,1.55-.5,1.67,1.67,0,0,1,1.14.4,2.41,2.41,0,0,1,.73,1.15,6.11,6.11,0,0,1,.29,1.76c0,.52,0,1.06,0,1.64s0,1.11,0,1.62a10.11,10.11,0,0,1-.29,2.1,9.19,9.19,0,0,1-.73,2,7.79,7.79,0,0,1-1.14,1.72,6.3,6.3,0,0,1-1.55,1.28,3.19,3.19,0,0,1-1.55.51,1.67,1.67,0,0,1-1.14-.4,2.61,2.61,0,0,1-.73-1.17,6.41,6.41,0,0,1-.29-1.76c0-.49,0-1,0-1.6S355.42,284.57,355.43,284Zm5.22.16c0-.23,0-.48,0-.75s0-.55,0-.83,0-.55,0-.81,0-.48,0-.69a4,4,0,0,0-.12-.77,1.27,1.27,0,0,0-.29-.5.63.63,0,0,0-.46-.18,1.23,1.23,0,0,0-.64.2,2.36,2.36,0,0,0-.64.54,3.09,3.09,0,0,0-.46.71,3.86,3.86,0,0,0-.28.83,5.51,5.51,0,0,0-.13.92q0,.31,0,.72v1.64c0,.26,0,.5,0,.71a2,2,0,0,0,.41,1.28c.24.27.61.26,1.1,0a2.52,2.52,0,0,0,1.09-1.23A5.1,5.1,0,0,0,360.65,284.19Z" style="fill:#455a64"></path><path d="M369.65,283.86c-.14.08-.25.09-.33,0a.48.48,0,0,1-.16-.16L366.44,279v6.19a.85.85,0,0,1-.1.4.54.54,0,0,1-.22.28l-1.56.9a.18.18,0,0,1-.23,0,.4.4,0,0,1-.09-.29V274.67a.93.93,0,0,1,.09-.4.61.61,0,0,1,.23-.28l1.24-.72a.29.29,0,0,1,.32,0,.47.47,0,0,1,.16.16L369,278.1v-6.18a1,1,0,0,1,.09-.41.57.57,0,0,1,.23-.27l1.55-.9a.18.18,0,0,1,.23,0,.41.41,0,0,1,.1.3v11.82a1,1,0,0,1-.1.4.6.6,0,0,1-.23.28Z" style="fill:#455a64"></path><g id="freepik--window--inject-36"><polygon points="181.86 286.63 181.86 375.34 87.89 321.08 87.88 232.39 181.86 286.63" style="fill:#3E92CC"></polygon><polygon points="181.86 286.63 181.86 375.34 87.89 321.08 87.88 232.39 181.86 286.63" style="fill:#3E92CC"></polygon><polygon points="181.86 286.63 181.86 375.34 87.89 321.08 87.88 232.39 181.86 286.63" style="opacity:0.1"></polygon><polygon points="95.13 242.14 177.03 289.44 177.03 364.19 95.13 316.9 95.13 242.14" style="fill:#455a64"></polygon><polygon points="177.03 357.53 177.03 356.02 95.13 308.74 95.13 310.25 177.03 357.53" style="fill:#37474f"></polygon><polygon points="177.03 348.91 177.03 347.4 95.13 300.12 95.13 301.63 177.03 348.91" style="fill:#37474f"></polygon><polygon points="177.03 340.29 177.03 338.78 95.13 291.5 95.13 293.01 177.03 340.29" style="fill:#37474f"></polygon><polygon points="177.03 331.67 177.03 330.16 95.13 282.88 95.13 284.39 177.03 331.67" style="fill:#37474f"></polygon><polygon points="177.03 323.06 177.03 321.54 95.13 274.26 95.13 275.77 177.03 323.06" style="fill:#37474f"></polygon><polygon points="177.03 314.44 177.03 312.92 95.13 265.64 95.13 267.15 177.03 314.44" style="fill:#37474f"></polygon><polygon points="177.03 305.82 177.03 304.3 95.13 257.02 95.13 258.53 177.03 305.82" style="fill:#37474f"></polygon><polygon points="177.03 297.2 177.03 295.68 95.13 248.4 95.13 249.91 177.03 297.2" style="fill:#37474f"></polygon><polygon points="92.72 318.29 95.13 316.9 95.13 242.14 92.72 240.74 92.72 318.29" style="fill:#3E92CC"></polygon><polygon points="92.72 318.29 95.13 316.9 95.13 242.14 92.72 240.74 92.72 318.29" style="opacity:0.35000000000000003"></polygon><polygon points="181.86 375.34 184.27 373.95 184.27 285.24 181.86 286.63 181.86 375.34" style="fill:#3E92CC"></polygon><polygon points="181.86 375.34 184.27 373.95 184.27 285.24 181.86 286.63 181.86 375.34" style="opacity:0.35000000000000003"></polygon><polygon points="92.72 318.29 95.13 316.9 177.03 364.19 177.03 366.98 92.72 318.29" style="fill:#3E92CC"></polygon><polygon points="92.72 318.29 95.13 316.9 177.03 364.19 177.03 366.98 92.72 318.29" style="opacity:0.2"></polygon><polygon points="87.88 232.39 90.3 231 184.27 285.24 181.85 286.64 87.88 232.39" style="fill:#3E92CC"></polygon><polygon points="87.88 232.39 90.3 231 184.27 285.24 181.85 286.64 87.88 232.39" style="fill:#fff;opacity:0.5"></polygon></g><polygon points="189.98 284.32 189.98 273.05 167.19 297.48 189.98 284.32" style="fill:#e0e0e0"></polygon><path d="M59.77,241.12a10.73,10.73,0,0,0,4.86,8.42l.05,0c2.68,1.55,4.86.3,4.86-2.8v-5.67l-9.77-5.64Z" style="fill:#ebebeb"></path><path d="M79.3,252.4a10.74,10.74,0,0,0,4.86,8.41l0,0c2.68,1.55,4.86.29,4.86-2.8v-5.67l-9.77-5.64Z" style="fill:#ebebeb"></path><path d="M98.83,263.67a10.76,10.76,0,0,0,4.86,8.42l0,0c2.68,1.55,4.86.29,4.86-2.81v-5.66L98.83,258Z" style="fill:#ebebeb"></path><path d="M118.36,275a10.76,10.76,0,0,0,4.86,8.42l0,0c2.68,1.55,4.86.3,4.86-2.8v-5.67l-9.77-5.64Z" style="fill:#ebebeb"></path><path d="M137.89,286.23a10.74,10.74,0,0,0,4.86,8.41l.05,0c2.68,1.55,4.86.29,4.86-2.8V286.2l-9.77-5.64Z" style="fill:#ebebeb"></path><path d="M157.43,297.5a10.73,10.73,0,0,0,4.86,8.42l.05,0c2.68,1.55,4.85.29,4.85-2.81v-5.66l-9.76-5.64Z" style="fill:#ebebeb"></path><polygon points="167.19 297.48 59.77 235.45 82.56 211.02 189.98 273.05 167.19 297.48" style="fill:#fafafa"></polygon><polygon points="157.43 291.84 180.22 267.41 170.45 261.77 147.66 286.2 157.43 291.84" style="fill:#3E92CC"></polygon><polygon points="137.9 280.56 160.69 256.13 150.92 250.49 128.13 274.92 137.9 280.56" style="fill:#3E92CC"></polygon><polygon points="118.37 269.29 141.16 244.85 131.39 239.22 108.6 263.65 118.37 269.29" style="fill:#3E92CC"></polygon><polygon points="98.84 258.01 121.63 233.58 111.86 227.94 89.07 252.37 98.84 258.01" style="fill:#3E92CC"></polygon><polygon points="79.31 246.73 102.1 222.3 92.33 216.66 69.54 241.09 79.31 246.73" style="fill:#3E92CC"></polygon><path d="M69.53,246.76a10.72,10.72,0,0,0,4.86,8.41l0,0c2.69,1.55,4.86.3,4.86-2.8v-5.67l-9.77-5.64Z" style="fill:#3E92CC"></path><path d="M89.07,258a10.74,10.74,0,0,0,4.85,8.41l0,0c2.69,1.55,4.86.29,4.86-2.81V258l-9.76-5.64Z" style="fill:#3E92CC"></path><path d="M108.6,269.31a10.73,10.73,0,0,0,4.86,8.42l.05,0c2.68,1.55,4.85.29,4.85-2.81v-5.67l-9.76-5.63Z" style="fill:#3E92CC"></path><path d="M128.13,280.59A10.71,10.71,0,0,0,133,289l0,0c2.68,1.55,4.85.3,4.85-2.8v-5.67l-9.76-5.64Z" style="fill:#3E92CC"></path><path d="M147.66,291.87a10.73,10.73,0,0,0,4.86,8.41l0,0c2.68,1.55,4.86.29,4.86-2.81v-5.66l-9.77-5.64Z" style="fill:#3E92CC"></path><g style="opacity:0.2"><path d="M69.53,246.76a10.72,10.72,0,0,0,4.86,8.41l0,0c2.69,1.55,4.86.3,4.86-2.8v-5.67l-9.77-5.64Z"></path><path d="M89.07,258a10.74,10.74,0,0,0,4.85,8.41l0,0c2.69,1.55,4.86.29,4.86-2.81V258l-9.76-5.64Z"></path><path d="M108.6,269.31a10.73,10.73,0,0,0,4.86,8.42l.05,0c2.68,1.55,4.85.29,4.85-2.81v-5.67l-9.76-5.63Z"></path><path d="M128.13,280.59A10.71,10.71,0,0,0,133,289l0,0c2.68,1.55,4.85.3,4.85-2.8v-5.67l-9.76-5.64Z"></path><path d="M147.66,291.87a10.73,10.73,0,0,0,4.86,8.41l0,0c2.68,1.55,4.86.29,4.86-2.81v-5.66l-9.77-5.64Z"></path></g><g style="opacity:0.1"><polygon points="157.43 291.84 180.22 267.41 170.45 261.77 147.66 286.2 157.43 291.84"></polygon><polygon points="137.9 280.56 160.69 256.13 150.92 250.49 128.13 274.92 137.9 280.56"></polygon><polygon points="118.37 269.29 141.16 244.85 131.39 239.22 108.6 263.65 118.37 269.29"></polygon><polygon points="98.84 258.01 121.63 233.58 111.86 227.94 89.07 252.37 98.84 258.01"></polygon><polygon points="79.31 246.73 102.1 222.3 92.33 216.66 69.54 241.09 79.31 246.73"></polygon></g><polygon points="154.9 311.27 113.98 287.65 113.98 317.71 154.9 341.34 154.9 311.27" style="opacity:0.15"></polygon><polygon points="153.76 311.96 112.84 288.34 112.84 318.41 153.76 342.03 153.76 311.96" style="fill:#3E92CC"></polygon><path d="M118.77,296.14a2.83,2.83,0,0,1,.61.47,2.51,2.51,0,0,1,.46.6,3.26,3.26,0,0,1,.29.74,3.44,3.44,0,0,1,.1.86,2,2,0,0,1-.16.91.57.57,0,0,1-.46.33l.64,2.28a.16.16,0,0,1,0,.09.16.16,0,0,1,0,.11.06.06,0,0,1-.08,0l-.71-.41a.31.31,0,0,1-.15-.15c0-.07,0-.13-.07-.19l-.57-2-.48-.27v1.71a.15.15,0,0,1,0,.12.08.08,0,0,1-.1,0l-.68-.39a.25.25,0,0,1-.1-.12.58.58,0,0,1,0-.18v-5.15a.2.2,0,0,1,0-.13.08.08,0,0,1,.1,0Zm-.59,2.08.59.34a.47.47,0,0,0,.36.08c.09,0,.14-.16.14-.38a1,1,0,0,0-.14-.55,1.13,1.13,0,0,0-.36-.33l-.59-.34Z" style="fill:#455a64"></path><path d="M123.42,303.14a.25.25,0,0,1,.1.12.39.39,0,0,1,0,.18v.84a.17.17,0,0,1,0,.13.08.08,0,0,1-.1,0L121,303a.2.2,0,0,1-.1-.12.39.39,0,0,1,0-.18v-5.15c0-.06,0-.11,0-.13s.06,0,.1,0l2.41,1.4a.25.25,0,0,1,.1.12.35.35,0,0,1,0,.17V300a.17.17,0,0,1,0,.13.09.09,0,0,1-.1,0l-1.6-.92V300l1.49.86a.25.25,0,0,1,.1.12.58.58,0,0,1,0,.18V302a.22.22,0,0,1,0,.13.08.08,0,0,1-.1,0l-1.49-.86v.89Z" style="fill:#455a64"></path><path d="M124.17,303.07a.25.25,0,0,1-.1-.12.39.39,0,0,1,0-.18V302c0-.06,0-.11,0-.13a.08.08,0,0,1,.1,0l1.63.94a.34.34,0,0,1,.1.13.33.33,0,0,1,0,.17v.81a.17.17,0,0,1,0,.13.09.09,0,0,1-.1,0Z" style="fill:#455a64"></path><path d="M126.47,302.67a2.53,2.53,0,0,1,.13-.77,1.13,1.13,0,0,1,.31-.5.8.8,0,0,1,.5-.17,1.35,1.35,0,0,1,.68.21,2.6,2.6,0,0,1,.67.57,3,3,0,0,1,.5.75,3.62,3.62,0,0,1,.32.87,4.75,4.75,0,0,1,.13.91c0,.23,0,.48,0,.73s0,.48,0,.69a2.81,2.81,0,0,1-.13.77,1.09,1.09,0,0,1-.32.51.67.67,0,0,1-.5.17,1.35,1.35,0,0,1-.67-.22,2.61,2.61,0,0,1-.68-.56,3.63,3.63,0,0,1-.5-.75,4.08,4.08,0,0,1-.31-.87,4.16,4.16,0,0,1-.13-.92c0-.22,0-.45,0-.7S126.46,302.9,126.47,302.67Zm2.28,2.7c0-.1,0-.2,0-.31v-.72c0-.12,0-.22,0-.31a2.57,2.57,0,0,0-.06-.4,1.9,1.9,0,0,0-.12-.36,1.32,1.32,0,0,0-.2-.32,1,1,0,0,0-.28-.23.6.6,0,0,0-.28-.09.28.28,0,0,0-.2.08.47.47,0,0,0-.12.22,1.59,1.59,0,0,0-.06.34,2.63,2.63,0,0,0,0,.3c0,.11,0,.23,0,.35s0,.24,0,.36,0,.23,0,.33a1.93,1.93,0,0,0,.18.76,1.1,1.1,0,0,0,.48.54c.21.13.37.13.48,0A1,1,0,0,0,128.75,305.37Z" style="fill:#455a64"></path><path d="M131.94,303.75a2.63,2.63,0,0,1,.59.45,2.52,2.52,0,0,1,.45.62,3.07,3.07,0,0,1,.29.75,3.46,3.46,0,0,1,.1.87,2.36,2.36,0,0,1-.1.77.76.76,0,0,1-.29.41.56.56,0,0,1-.45.09,1.54,1.54,0,0,1-.59-.22l-.67-.38v1.62c0,.06,0,.11,0,.13a.08.08,0,0,1-.1,0l-.68-.39a.32.32,0,0,1-.1-.12.58.58,0,0,1,0-.18V303a.19.19,0,0,1,0-.12.08.08,0,0,1,.1,0Zm-.67,2.11.64.37a.42.42,0,0,0,.36.06c.1,0,.14-.18.14-.4a1,1,0,0,0-.14-.57.93.93,0,0,0-.36-.35l-.64-.37Z" style="fill:#455a64"></path><path d="M136.47,310.67a.25.25,0,0,1,.1.12.58.58,0,0,1,0,.18v.84a.2.2,0,0,1,0,.13.08.08,0,0,1-.1,0L134,310.53a.25.25,0,0,1-.1-.12.39.39,0,0,1,0-.18v-5.15a.17.17,0,0,1,0-.13.08.08,0,0,1,.1,0l2.42,1.4a.32.32,0,0,1,.1.12.59.59,0,0,1,0,.17v.85a.22.22,0,0,1,0,.13.08.08,0,0,1-.1,0l-1.6-.92v.87l1.48.85a.25.25,0,0,1,.1.12.39.39,0,0,1,0,.18v.84a.17.17,0,0,1,0,.13.08.08,0,0,1-.1,0l-1.48-.86v.9Z" style="fill:#455a64"></path><path d="M139.56,313.74a.44.44,0,0,1-.14-.16.85.85,0,0,1-.07-.15L138.16,310v2.69a.17.17,0,0,1,0,.13.08.08,0,0,1-.1,0l-.68-.39a.33.33,0,0,1-.09-.13.34.34,0,0,1-.05-.17V307a.17.17,0,0,1,.05-.13.07.07,0,0,1,.09,0l.54.31a.36.36,0,0,1,.15.15,1.58,1.58,0,0,1,.07.16l1.18,3.41v-2.7a.14.14,0,0,1,.05-.12.06.06,0,0,1,.09,0l.68.39a.25.25,0,0,1,.1.12.39.39,0,0,1,0,.18v5.15a.17.17,0,0,1,0,.13.08.08,0,0,1-.1,0Z" style="fill:#455a64"></path><path d="M141.11,314.63a.25.25,0,0,1-.1-.12.39.39,0,0,1,0-.18v-5.15c0-.06,0-.11,0-.13a.08.08,0,0,1,.1,0l.68.39a.31.31,0,0,1,.1.12.58.58,0,0,1,0,.18v5.16a.19.19,0,0,1,0,.12.08.08,0,0,1-.1,0Z" style="fill:#455a64"></path><path d="M145,316.88a.34.34,0,0,1-.14-.15.85.85,0,0,1-.07-.15l-1.19-3.42v2.7a.17.17,0,0,1,0,.13.08.08,0,0,1-.1,0l-.68-.39a.24.24,0,0,1-.09-.12.41.41,0,0,1,0-.17v-5.16a.17.17,0,0,1,0-.13.06.06,0,0,1,.09,0l.54.31a.46.46,0,0,1,.15.16,1.13,1.13,0,0,0,.07.15l1.18,3.42v-2.7a.22.22,0,0,1,0-.13.08.08,0,0,1,.1,0l.68.4a.25.25,0,0,1,.1.12.35.35,0,0,1,0,.17v5.16a.17.17,0,0,1,0,.13.08.08,0,0,1-.1,0Z" style="fill:#455a64"></path><path d="M147.91,314.16a.59.59,0,0,0-.3-.09.23.23,0,0,0-.19.09.62.62,0,0,0-.12.23,3.06,3.06,0,0,0-.05.32c0,.07,0,.16,0,.28v.77c0,.12,0,.22,0,.29s0,.26.05.38a1.9,1.9,0,0,0,.12.36,1.29,1.29,0,0,0,.19.32,1.05,1.05,0,0,0,.3.25.69.69,0,0,0,.25.09.25.25,0,0,0,.21,0,.36.36,0,0,0,.14-.19,1.25,1.25,0,0,0,.05-.38l-.44-.25a.24.24,0,0,1-.09-.12.37.37,0,0,1-.05-.17v-.85a.17.17,0,0,1,.05-.13.06.06,0,0,1,.09,0l1.26.72a.25.25,0,0,1,.1.12.58.58,0,0,1,0,.18v1a2.25,2.25,0,0,1-.13.84,1,1,0,0,1-.34.5.79.79,0,0,1-.51.14,1.33,1.33,0,0,1-.63-.22,2.69,2.69,0,0,1-.67-.55,3.57,3.57,0,0,1-.5-.76,4.54,4.54,0,0,1-.32-.87,4.87,4.87,0,0,1-.13-.91c0-.22,0-.46,0-.71s0-.49,0-.71a2.53,2.53,0,0,1,.13-.77,1.11,1.11,0,0,1,.32-.5.71.71,0,0,1,.5-.18,1.35,1.35,0,0,1,.67.22,2.37,2.37,0,0,1,.65.54,3.68,3.68,0,0,1,.49.7,3.86,3.86,0,0,1,.32.73,2.44,2.44,0,0,1,.12.64.1.1,0,0,1,0,.11.06.06,0,0,1-.08,0l-.69-.4a.28.28,0,0,1-.12-.14l-.09-.19a1.74,1.74,0,0,0-.2-.38A1,1,0,0,0,147.91,314.16Z" style="fill:#455a64"></path><path d="M120.37,305.43a5.75,5.75,0,0,1,1.4,1.14,9,9,0,0,1,1.1,1.51,8.59,8.59,0,0,1,.72,1.59,4.58,4.58,0,0,1,.27,1.38.33.33,0,0,1-.07.24.15.15,0,0,1-.18,0l-1.55-.9a.87.87,0,0,1-.27-.23,2,2,0,0,1-.21-.34l-.11-.25a4.37,4.37,0,0,0-.22-.39,3.33,3.33,0,0,0-.36-.44,2.19,2.19,0,0,0-.52-.41,4,4,0,0,0-.43-.2,1.13,1.13,0,0,0-.37-.07.33.33,0,0,0-.26.14.6.6,0,0,0-.11.4,1.2,1.2,0,0,0,.12.52,2.41,2.41,0,0,0,.38.56,9.42,9.42,0,0,0,.71.71l1.09,1a10.4,10.4,0,0,1,1.14,1.17,6.21,6.21,0,0,1,.81,1.25,5.88,5.88,0,0,1,.49,1.37,7.2,7.2,0,0,1,.16,1.59,3.53,3.53,0,0,1-.27,1.5,1.63,1.63,0,0,1-.77.82,1.93,1.93,0,0,1-1.16.12,4.71,4.71,0,0,1-1.47-.57,6.62,6.62,0,0,1-1.48-1.18,9.21,9.21,0,0,1-1.14-1.53,9.1,9.1,0,0,1-.76-1.66,5.35,5.35,0,0,1-.28-1.54.32.32,0,0,1,.07-.23.14.14,0,0,1,.18,0l1.55.9a.84.84,0,0,1,.27.21,3.23,3.23,0,0,1,.19.3c0,.07.07.18.14.32a4.57,4.57,0,0,0,.25.49,3.28,3.28,0,0,0,.41.53,2.44,2.44,0,0,0,.6.48,2.85,2.85,0,0,0,1,.4c.28,0,.42-.15.42-.52a1.14,1.14,0,0,0-.15-.55,3.56,3.56,0,0,0-.47-.6,7.36,7.36,0,0,0-.79-.76c-.32-.28-.7-.62-1.13-1a7.14,7.14,0,0,1-1.79-2.38,6.83,6.83,0,0,1-.56-2.84,3.58,3.58,0,0,1,.23-1.37,1.81,1.81,0,0,1,.67-.87,1.62,1.62,0,0,1,1.06-.26A3.32,3.32,0,0,1,120.37,305.43Z" style="fill:#455a64"></path><path d="M125,313.07a6,6,0,0,1,.29-1.76,2.56,2.56,0,0,1,.72-1.16,1.76,1.76,0,0,1,1.14-.4,3.14,3.14,0,0,1,1.55.5,6,6,0,0,1,1.55,1.29,8.46,8.46,0,0,1,1.15,1.72,9.63,9.63,0,0,1,.72,2,10.11,10.11,0,0,1,.29,2.1c0,.54,0,1.09,0,1.66s0,1.11,0,1.6a6.11,6.11,0,0,1-.29,1.76,2.56,2.56,0,0,1-.72,1.16,1.62,1.62,0,0,1-1.15.4,3.24,3.24,0,0,1-1.55-.5,6.34,6.34,0,0,1-1.55-1.28,8.86,8.86,0,0,1-1.14-1.72,9.93,9.93,0,0,1-.72-2,10.3,10.3,0,0,1-.29-2.1c0-.51,0-1.05,0-1.63S125,313.59,125,313.07Zm5.21,6.18q0-.33,0-.72c0-.26,0-.54,0-.82s0-.55,0-.82,0-.5,0-.72a4.53,4.53,0,0,0-.12-.91,3.7,3.7,0,0,0-.29-.83,3.35,3.35,0,0,0-.45-.72,2.56,2.56,0,0,0-.65-.53,1.33,1.33,0,0,0-.64-.21.66.66,0,0,0-.45.19,1.1,1.1,0,0,0-.29.5,3.24,3.24,0,0,0-.13.77q0,.3,0,.69v1.64c0,.27,0,.52,0,.74a4.89,4.89,0,0,0,.42,1.76,2.64,2.64,0,0,0,1.09,1.24c.5.28.86.29,1.1,0A2.13,2.13,0,0,0,130.23,319.25Z" style="fill:#455a64"></path><path d="M133.55,318a6.18,6.18,0,0,1,.29-1.77,2.46,2.46,0,0,1,.73-1.15,1.67,1.67,0,0,1,1.14-.4,3.09,3.09,0,0,1,1.55.5,5.87,5.87,0,0,1,1.54,1.28,8.4,8.4,0,0,1,1.15,1.73,9.43,9.43,0,0,1,.72,2,10.13,10.13,0,0,1,.3,2.1c0,.53,0,1.09,0,1.66s0,1.1,0,1.59a6.17,6.17,0,0,1-.3,1.77,2.62,2.62,0,0,1-.72,1.16,1.65,1.65,0,0,1-1.15.4,3.13,3.13,0,0,1-1.54-.51,5.61,5.61,0,0,1-1.55-1.28,7.56,7.56,0,0,1-1.14-1.72,9.19,9.19,0,0,1-.73-2,10.11,10.11,0,0,1-.29-2.1c0-.51,0-1.05,0-1.62S133.53,318.51,133.55,318Zm5.22,6.17c0-.21,0-.45,0-.71s0-.54,0-.82,0-.55,0-.82,0-.51,0-.72a5.39,5.39,0,0,0-.13-.91,3.43,3.43,0,0,0-.74-1.55,2.51,2.51,0,0,0-.64-.53,1.26,1.26,0,0,0-.64-.21.66.66,0,0,0-.46.18,1.24,1.24,0,0,0-.29.51,3.19,3.19,0,0,0-.12.77,6.8,6.8,0,0,0,0,.68c0,.26,0,.53,0,.81s0,.56,0,.83,0,.52,0,.75a4.93,4.93,0,0,0,.41,1.76,2.66,2.66,0,0,0,1.1,1.24c.49.28.85.29,1.09,0A2.08,2.08,0,0,0,138.77,324.17Z" style="fill:#455a64"></path><path d="M147.76,334.24a.87.87,0,0,1-.32-.36,1.39,1.39,0,0,1-.16-.35l-2.72-7.83v6.19a.4.4,0,0,1-.1.29.18.18,0,0,1-.23,0l-1.55-.9a.55.55,0,0,1-.23-.28,1,1,0,0,1-.09-.4V318.8a.39.39,0,0,1,.09-.29.17.17,0,0,1,.23,0l1.23.71a.83.83,0,0,1,.33.36,2.24,2.24,0,0,1,.16.35l2.72,7.83v-6.19a.37.37,0,0,1,.1-.29.17.17,0,0,1,.22,0l1.56.9a.61.61,0,0,1,.23.28,1,1,0,0,1,.09.4v11.82a.4.4,0,0,1-.09.29.17.17,0,0,1-.23,0Z" style="fill:#455a64"></path></g></g><g id="freepik--Blackboard--inject-36"><g id="freepik--Balloons--inject-36"><path d="M219.66,349.43c-1,2.83-2,5.78-1.93,8.81,0,1.52.3,3,.3,4.53a16.71,16.71,0,0,1-.68,4.82c-.9,3-2.5,5.64-2.84,8.75s.27,6.27-.56,9.31c-.48,1.78-1.63,3-2.54,4.59a10,10,0,0,0-1.06,4.33c0,.25.43.31.45.06a9.84,9.84,0,0,1,1-4.14,28.24,28.24,0,0,0,2.3-3.8c1.09-2.83.68-5.91.78-8.87a16.52,16.52,0,0,1,.86-4.72c.49-1.45,1.13-2.85,1.67-4.28a18.79,18.79,0,0,0,.92-8.77,16.46,16.46,0,0,1,.15-5.1c.36-1.83.93-3.61,1.43-5.4,0-.12-.17-.27-.23-.12Z" style="fill:#fafafa"></path><path d="M221.22,350.35h0A5.87,5.87,0,0,0,220,347.2a5.54,5.54,0,0,0-2.25,2.43h0a.89.89,0,0,0,.36.82,2.77,2.77,0,0,0,2.48.51.87.87,0,0,0,.66-.61Z" style="fill:#3E92CC"></path><path d="M221.22,350.35h0A5.87,5.87,0,0,0,220,347.2a5.54,5.54,0,0,0-2.25,2.43h0a.89.89,0,0,0,.36.82,2.77,2.77,0,0,0,2.48.51.87.87,0,0,0,.66-.61Z" style="opacity:0.30000000000000004"></path><path d="M233,336c-1.17,5.66-7.1,11.89-13.19,12-5.51-2.85-8.49-10.63-7.31-16.3S218.4,321.59,225,323,234.16,330.38,233,336Z" style="fill:#3E92CC"></path><path d="M233,336c-1.17,5.66-7.1,11.89-13.19,12-5.51-2.85-8.49-10.63-7.31-16.3S218.4,321.59,225,323,234.16,330.38,233,336Z" style="opacity:0.2"></path><path d="M212.3,334.83s.4,5.75,7,7.58c6.39,1.77,13.14-4.25,13.92-9A13.16,13.16,0,0,1,233,336c-1.17,5.66-7.1,11.89-13.19,12-4.56-2.36-7.39-8.11-7.56-13.24Z" style="opacity:0.1"></path><path d="M199,360.67a13.72,13.72,0,0,0,1.94,6.89c.69,1.15,1.44,2.26,2,3.46a10,10,0,0,1,1,4c.06,1.35-.05,2.7.11,4a9.24,9.24,0,0,0,1.16,3.38c.58,1.06,1.28,2.06,1.84,3.13a10.79,10.79,0,0,1,1.08,3.5c.36,2.63.13,5.43,1.47,7.83.12.21.55.1.41-.14-1.21-2.18-1.1-4.71-1.36-7.12a12,12,0,0,0-.76-3.29,24.55,24.55,0,0,0-1.76-3.17,10.79,10.79,0,0,1-1.53-3.47,20.76,20.76,0,0,1-.2-4,11,11,0,0,0-.59-3.69,18.31,18.31,0,0,0-1.74-3.31,18.85,18.85,0,0,1-2.12-4,18.27,18.27,0,0,1-.76-3.95c0-.12-.23-.23-.23-.06Z" style="fill:#fafafa"></path><path d="M198.56,361.92a1.72,1.72,0,0,1-1.48,2,1.38,1.38,0,0,1-.63-.11c-.19-.09-.46-.29-.41-.54s.6-.21.8-.13a1,1,0,0,1,.54.56,1.36,1.36,0,0,1-.89,1.92,1.06,1.06,0,0,1-1-.36.61.61,0,0,1-.12-.48c.09-.29.46-.11.61,0a1,1,0,0,1,.18,1.29,1.13,1.13,0,0,1-1.12.47c-.16,0-.12.21,0,.24a1.26,1.26,0,0,0,1.42-.53,1.3,1.3,0,0,0-.18-1.52c-.31-.35-1.16-.69-1.26,0-.07.56.49,1,1,1.11a1.46,1.46,0,0,0,1.55-.52,1.75,1.75,0,0,0,.19-1.67,1.5,1.5,0,0,0-1.52-.92.5.5,0,0,0-.5.51.89.89,0,0,0,.48.69,1.77,1.77,0,0,0,2-.13,1.85,1.85,0,0,0,.58-1.94c0-.1-.18-.14-.17,0Z" style="fill:#fafafa"></path><path d="M200.86,361.23h0a5.87,5.87,0,0,0-2.33-2.46,5.56,5.56,0,0,0-1.19,3.09h0a.91.91,0,0,0,.64.63,2.78,2.78,0,0,0,2.49-.44.89.89,0,0,0,.39-.82Z" style="fill:#3E92CC"></path><path d="M200.86,361.23h0a5.87,5.87,0,0,0-2.33-2.46,5.56,5.56,0,0,0-1.19,3.09h0a.91.91,0,0,0,.64.63,2.78,2.78,0,0,0,2.49-.44.89.89,0,0,0,.39-.82Z" style="fill:#fff;opacity:0.30000000000000004"></path><path d="M206.45,343.57c1,5.69-2.17,13.68-7.76,16.08-6.17-.59-11.84-6.7-12.86-12.4s1.7-11.66,8.34-12.85S205.43,337.88,206.45,343.57Z" style="fill:#3E92CC"></path><path d="M206.45,343.57c1,5.69-2.17,13.68-7.76,16.08-6.17-.59-11.84-6.7-12.86-12.4s1.7-11.66,8.34-12.85S205.43,337.88,206.45,343.57Z" style="opacity:0.2"></path><path d="M186.81,350.15s2.51,5.19,9.35,4.42c6.59-.75,10.61-8.85,9.56-13.55a12.87,12.87,0,0,1,.73,2.55c1,5.69-2.17,13.68-7.76,16.08-5.12-.49-9.88-4.77-11.95-9.46Z" style="opacity:0.1"></path><path d="M210.68,367.39c-.24,1-.66,2-.87,3.05a12.68,12.68,0,0,0-.12,3.84c.24,2.49.91,4.91,1,7.41s-.61,5.08-.92,7.62a17.81,17.81,0,0,0-.08,3.65,9.68,9.68,0,0,0,.54,3.25c.1.22.53.11.42-.15a9.81,9.81,0,0,1-.53-3.36,17.24,17.24,0,0,1,.16-3.8,41.71,41.71,0,0,0,.86-7.11c-.07-2.42-.69-4.77-1-7.16a14.7,14.7,0,0,1-.07-3.57c.15-1.21.65-2.34.81-3.55,0-.12-.19-.27-.23-.12Z" style="fill:#fafafa"></path><path d="M209.51,368.22a1.77,1.77,0,0,1-.74,2.16,1.34,1.34,0,0,1-1.2,0c-.13-.08-.29-.23-.24-.4s.2-.17.28-.2a1,1,0,0,1,.18,0,1,1,0,0,1,.83.29,1.39,1.39,0,0,1-.19,2.12,1.14,1.14,0,0,1-1.09,0,.66.66,0,0,1-.35-.43c-.07-.37.38-.32.6-.21a1,1,0,0,1,.46,1.19,1.15,1.15,0,0,1-1,.72c-.15,0,0,.24.06.25a1.26,1.26,0,0,0,1.31-1,1.35,1.35,0,0,0-.67-1.4c-.39-.23-1.11-.27-1.08.35s.65.89,1.15.92a1.56,1.56,0,0,0,1.27-2.49,1.48,1.48,0,0,0-1.77-.58.49.49,0,0,0-.28.61,1,1,0,0,0,.66.57,1.75,1.75,0,0,0,1.85-.59,1.89,1.89,0,0,0,.12-2c0-.1-.19-.08-.15.05Z" style="fill:#fafafa"></path><path d="M212.48,368.41h0a5.82,5.82,0,0,0-1.75-2.9,5.47,5.47,0,0,0-1.82,2.77h0a.9.9,0,0,0,.49.75,2.82,2.82,0,0,0,2.53.1.91.91,0,0,0,.55-.72Z" style="fill:#37474f"></path><path d="M221.72,352.35c-.23,5.78-5,12.9-11,14.06-5.9-1.9-10.13-9.09-9.9-14.87s4.15-11,10.89-10.77S221.94,346.57,221.72,352.35Z" style="fill:#455a64"></path><path d="M201.12,354.58s1.35,5.61,8.19,6.31c6.6.69,12.26-6.36,12.24-11.18a12.88,12.88,0,0,1,.17,2.64c-.23,5.78-5,12.9-11,14.06-4.89-1.58-8.63-6.78-9.64-11.81Z" style="fill:#37474f"></path></g><g id="freepik--blackboard--inject-36"><g id="freepik--Barrier--inject-36"><path d="M227.5,425.11l-2.41,1.39a1,1,0,0,1-.87,0l-.76-.44a.75.75,0,0,1-.33-.75l8-37.75a1.29,1.29,0,0,1,.54-.75l2.4-1.39a1,1,0,0,1,.87,0l.77.45a.72.72,0,0,1,.33.74l-8,37.76A1.3,1.3,0,0,1,227.5,425.11Z" style="fill:#3E92CC"></path><path d="M227.5,425.11l-2.41,1.39a1,1,0,0,1-.87,0l-.76-.44a.75.75,0,0,1-.33-.75l8-37.75a1.29,1.29,0,0,1,.54-.75l2.4-1.39a1,1,0,0,1,.87,0l.77.45a.72.72,0,0,1,.33.74l-8,37.76A1.3,1.3,0,0,1,227.5,425.11Z" style="opacity:0.2"></path><path d="M227.5,425.11l-2.41,1.39c-.24.14-.39,0-.33-.24l8-37.76a1.23,1.23,0,0,1,.54-.74l2.4-1.39c.24-.14.39,0,.33.24l-8,37.76A1.3,1.3,0,0,1,227.5,425.11Z" style="fill:#3E92CC"></path><path d="M227.5,425.11l-2.41,1.39c-.24.14-.39,0-.33-.24l8-37.76a1.23,1.23,0,0,1,.54-.74l2.4-1.39c.24-.14.39,0,.33.24l-8,37.76A1.3,1.3,0,0,1,227.5,425.11Z" style="opacity:0.35000000000000003"></path><polygon points="226.21 422.64 226.93 419.28 228.56 418.33 243.72 427.08 244.43 431.27 242.79 432.22 226.21 422.64" style="fill:#3E92CC"></polygon><polygon points="226.21 422.64 226.93 419.28 228.56 418.33 243.72 427.08 244.43 431.27 242.79 432.22 226.21 422.64" style="opacity:0.4"></polygon><polygon points="242.79 432.22 226.21 422.64 226.93 419.28 242.08 428.03 242.79 432.22" style="fill:#3E92CC"></polygon><polygon points="242.79 432.22 226.21 422.64 226.93 419.28 242.08 428.03 242.79 432.22" style="opacity:0.2"></polygon><path d="M245.5,435.5l-2.4,1.39a1,1,0,0,1-.88,0l-.76-.44a1.22,1.22,0,0,1-.52-.75l-8-47.2a.75.75,0,0,1,.35-.74l2.4-1.39a1,1,0,0,1,.87,0l.77.44a1.22,1.22,0,0,1,.52.75l8,47.2A.75.75,0,0,1,245.5,435.5Z" style="fill:#37474f"></path><path d="M232.93,388.5l.3,1.79,7.71,45.41a1.25,1.25,0,0,0,.52.75l.76.44a1,1,0,0,0,.88,0l2.4-1.38a.79.79,0,0,0,.35-.75l-8-47,0-.16a1.29,1.29,0,0,0-.52-.75l-.77-.44a1,1,0,0,0-.87,0l-2.4,1.38A.78.78,0,0,0,232.93,388.5Z" style="fill:#3E92CC"></path><path d="M232.93,388.5l.3,1.79,7.71,45.41a1.25,1.25,0,0,0,.52.75l.76.44a1,1,0,0,0,.88,0l2.4-1.38a.79.79,0,0,0,.35-.75l-8-47,0-.16a1.29,1.29,0,0,0-.52-.75l-.77-.44a1,1,0,0,0-.87,0l-2.4,1.38A.78.78,0,0,0,232.93,388.5Z" style="opacity:0.45"></path><path d="M237.84,387.56l8,47.2a.75.75,0,0,1-.35.74l-2.4,1.39a.33.33,0,0,1-.52-.24l-8-47.2a.79.79,0,0,1,.35-.75l2.41-1.39A.33.33,0,0,1,237.84,387.56Z" style="fill:#3E92CC"></path><path d="M237.84,387.56l8,47.2a.75.75,0,0,1-.35.74l-2.4,1.39a.33.33,0,0,1-.52-.24l-8-47.2a.79.79,0,0,1,.35-.75l2.41-1.39A.33.33,0,0,1,237.84,387.56Z" style="opacity:0.2"></path><path d="M204.84,438.19l-2.4,1.39a1,1,0,0,1-.88,0l-.76-.44a.75.75,0,0,1-.33-.75l8-37.75a1.29,1.29,0,0,1,.54-.75l2.4-1.38a1,1,0,0,1,.88,0l.76.44a.73.73,0,0,1,.33.74l-8,37.76A1.3,1.3,0,0,1,204.84,438.19Z" style="fill:#3E92CC"></path><path d="M204.84,438.19l-2.4,1.39a1,1,0,0,1-.88,0l-.76-.44a.75.75,0,0,1-.33-.75l8-37.75a1.29,1.29,0,0,1,.54-.75l2.4-1.38a1,1,0,0,1,.88,0l.76.44a.73.73,0,0,1,.33.74l-8,37.76A1.3,1.3,0,0,1,204.84,438.19Z" style="opacity:0.2"></path><path d="M204.84,438.19l-2.4,1.39c-.25.14-.39,0-.34-.24l8-37.76a1.3,1.3,0,0,1,.54-.74l2.4-1.39c.24-.14.39,0,.33.24l-8,37.76A1.3,1.3,0,0,1,204.84,438.19Z" style="fill:#3E92CC"></path><path d="M204.84,438.19l-2.4,1.39c-.25.14-.39,0-.34-.24l8-37.76a1.3,1.3,0,0,1,.54-.74l2.4-1.39c.24-.14.39,0,.33.24l-8,37.76A1.3,1.3,0,0,1,204.84,438.19Z" style="opacity:0.35000000000000003"></path><polygon points="203.51 435.78 204.22 432.42 205.86 431.47 221.02 440.22 221.73 444.41 220.09 445.36 203.51 435.78" style="fill:#3E92CC"></polygon><polygon points="203.51 435.78 204.22 432.42 205.86 431.47 221.02 440.22 221.73 444.41 220.09 445.36 203.51 435.78" style="opacity:0.4"></polygon><polygon points="220.09 445.36 203.51 435.78 204.22 432.42 219.38 441.17 220.09 445.36" style="fill:#3E92CC"></polygon><polygon points="220.09 445.36 203.51 435.78 204.22 432.42 219.38 441.17 220.09 445.36" style="opacity:0.2"></polygon><path d="M222.84,448.59l-2.4,1.38a1,1,0,0,1-.87,0l-.77-.44a1.22,1.22,0,0,1-.52-.75l-8-47.19a.77.77,0,0,1,.35-.75l2.4-1.39a1,1,0,0,1,.87,0l.77.44a1.25,1.25,0,0,1,.52.75l8,47.2A.78.78,0,0,1,222.84,448.59Z" style="fill:#37474f"></path><path d="M210.27,401.58l.3,1.79,7.71,45.41a1.22,1.22,0,0,0,.52.75l.77.44a1,1,0,0,0,.87,0l2.4-1.38a.78.78,0,0,0,.35-.75l-8-47,0-.16a1.25,1.25,0,0,0-.52-.75l-.77-.44a1,1,0,0,0-.87,0l-2.4,1.39A.76.76,0,0,0,210.27,401.58Z" style="fill:#3E92CC"></path><path d="M210.27,401.58l.3,1.79,7.71,45.41a1.22,1.22,0,0,0,.52.75l.77.44a1,1,0,0,0,.87,0l2.4-1.38a.78.78,0,0,0,.35-.75l-8-47,0-.16a1.25,1.25,0,0,0-.52-.75l-.77-.44a1,1,0,0,0-.87,0l-2.4,1.39A.76.76,0,0,0,210.27,401.58Z" style="opacity:0.45"></path><path d="M215.18,400.64l8,47.2a.78.78,0,0,1-.35.75l-2.4,1.38a.33.33,0,0,1-.52-.24l-8-47.2a.79.79,0,0,1,.36-.75l2.4-1.38A.33.33,0,0,1,215.18,400.64Z" style="fill:#3E92CC"></path><path d="M215.18,400.64l8,47.2a.78.78,0,0,1-.35.75l-2.4,1.38a.33.33,0,0,1-.52-.24l-8-47.2a.79.79,0,0,1,.36-.75l2.4-1.38A.33.33,0,0,1,215.18,400.64Z" style="opacity:0.2"></path><polygon points="207.3 395.81 238.84 377.59 238.02 377.12 206.47 395.33 207.3 395.81" style="fill:#37474f"></polygon><polygon points="207.3 395.81 215.51 445.08 247.05 426.87 238.84 377.59 207.3 395.81" style="fill:#455a64"></polygon><polygon points="206.47 395.33 214.68 444.6 215.51 445.08 207.3 395.81 206.47 395.33" style="fill:#263238"></polygon></g><path d="M214.7,406.2l.81-.47c.77-.44,1.18-.25,1.29.58a2.2,2.2,0,0,1-.85,2.15l1,1.56-.22.13-1-1.55-.78.45.07,2.07-.19.11Zm.94,2.2a1.84,1.84,0,0,0,1-2c-.1-.7-.43-.82-1.11-.43l-.61.35.08,2.44Z" style="fill:#fafafa"></path><path d="M219.48,407.79a2.18,2.18,0,0,1-1,1.39c-.64.36-1,.08-1.17-.83a2.37,2.37,0,0,1,.76-2.37c.4-.23.63-.1.7.36a2.06,2.06,0,0,1-1.27,2c.12.7.45.9,1,.61a1.92,1.92,0,0,0,.87-1.24Zm-2,.33a1.76,1.76,0,0,0,1.11-1.67c0-.34-.19-.42-.49-.25A2,2,0,0,0,217.5,408.12Z" style="fill:#fafafa"></path><path d="M219.62,406.22l1.27-.74v.25l-1.28.74Z" style="fill:#fafafa"></path><path d="M224.09,405.13a1.8,1.8,0,0,1-.68,1.13.42.42,0,0,1-.43,0,1.5,1.5,0,0,1-.57.64c-.5.29-.81,0-.92-.82a2.59,2.59,0,0,1,.86-2.58c.5-.29.81,0,.92.8a3.51,3.51,0,0,1-.19,1.73.31.31,0,0,0,.32,0,1.55,1.55,0,0,0,.58-1Zm-1-.72c-.09-.66-.34-.87-.71-.67a2.31,2.31,0,0,0-.71,2.27c.09.66.35.88.71.69A2.36,2.36,0,0,0,223.09,404.41Z" style="fill:#fafafa"></path><path d="M224,402.64l.19-.15,0,.62A2.2,2.2,0,0,1,225,402c.43-.25.66,0,.74.84a3.75,3.75,0,0,1-.19,1.79.31.31,0,0,0,.33,0,1.59,1.59,0,0,0,.57-1l.11.09a1.81,1.81,0,0,1-.67,1.13.46.46,0,0,1-.45,0,1.66,1.66,0,0,1-.63.68,1.12,1.12,0,0,1-.56.15l.05,1.59-.18.11Zm1.59.29c-.07-.68-.24-.87-.57-.69a2.58,2.58,0,0,0-.81,1.16l.06,2a.87.87,0,0,0,.54-.12A2.4,2.4,0,0,0,225.54,402.93Z" style="fill:#fafafa"></path><path d="M228.51,402.57a2.12,2.12,0,0,1-1,1.39c-.64.37-1,.08-1.17-.82a2.39,2.39,0,0,1,.76-2.38c.4-.23.63-.1.7.37a2.08,2.08,0,0,1-1.27,2c.12.69.46.9,1,.6a1.92,1.92,0,0,0,.87-1.23Zm-2,.33a1.74,1.74,0,0,0,1.11-1.67c0-.34-.19-.42-.49-.24A2,2,0,0,0,226.53,402.9Z" style="fill:#fafafa"></path><path d="M231.05,401.11a2,2,0,0,1-.65,1.2c-.27.16-.41-.06-.43-.71l0-1.36c0-.54-.17-.77-.51-.57a2.65,2.65,0,0,0-.84,1.17l.07,2.42-.19.11-.09-3.28.18-.15,0,.62a2.41,2.41,0,0,1,.87-1.14c.44-.25.64.05.66.64l0,1.36c0,.64.1.71.27.61a1.7,1.7,0,0,0,.51-1Z" style="fill:#fafafa"></path><path d="M230.82,397.72a.4.4,0,0,1,.15-.36c.09-.05.16,0,.18.13a.38.38,0,0,1-.15.35C230.91,397.9,230.84,397.84,230.82,397.72Zm1.4,2.71a2,2,0,0,1-.7,1.23c-.32.19-.52,0-.54-.72l-.06-2.32.17-.15.07,2.33c0,.62.16.72.37.6a1.72,1.72,0,0,0,.58-1.06Z" style="fill:#fafafa"></path><path d="M234.76,399a2,2,0,0,1-.65,1.2c-.27.15-.41-.06-.43-.71l0-1.36c0-.54-.17-.77-.5-.58a2.68,2.68,0,0,0-.85,1.18l.07,2.42-.18.11-.1-3.29.18-.15,0,.63a2.41,2.41,0,0,1,.87-1.14c.44-.26.65.05.66.63l0,1.36c0,.65.11.71.27.62a1.74,1.74,0,0,0,.52-1Z" style="fill:#fafafa"></path><path d="M235,401v-.25a1,1,0,0,0,.57-.16,1.78,1.78,0,0,0,.64-1.66c0-.21,0-.42,0-.63a1.79,1.79,0,0,1-.72,1.08c-.44.25-.71,0-.83-.82a2.58,2.58,0,0,1,1-2.69,4.9,4.9,0,0,1,.51-.25l.18-.15.1,3.43a3.42,3.42,0,0,0,.75-1.47l.11.09a3.68,3.68,0,0,1-.86,1.63,1.9,1.9,0,0,1-.81,1.66A1.22,1.22,0,0,1,235,401Zm1.17-3-.06-2.11a3.32,3.32,0,0,0-.51.24,2.26,2.26,0,0,0-.78,2.34c.09.66.29.9.64.7A2,2,0,0,0,236.17,398Z" style="fill:#fafafa"></path><path d="M219.12,417.39l.17-.34a1,1,0,0,0,1.32.12,2.1,2.1,0,0,0,1-2.1c-.1-.79-.5-.89-1.26-.87s-1.3-.29-1.41-1.11a2.23,2.23,0,0,1,1.11-2.35,1,1,0,0,1,1.29.1l-.16.33a.83.83,0,0,0-1.1-.08,1.73,1.73,0,0,0-.88,1.82c.11.76.56.91,1.34.91s1.23.21,1.34,1.1a2.59,2.59,0,0,1-1.26,2.61A1.11,1.11,0,0,1,219.12,417.39Z" style="fill:#fafafa"></path><path d="M222.64,413.59c-.33-2.31.27-4.48,1.56-5.23,1-.55,1.54.09,1.78,1.76.33,2.31-.28,4.49-1.57,5.23C223.46,415.9,222.88,415.26,222.64,413.59Zm3.07-3.3c-.21-1.47-.68-2-1.48-1.58-1.11.64-1.62,2.62-1.32,4.73.21,1.46.67,2,1.47,1.56C225.49,414.36,226,412.38,225.71,410.29Z" style="fill:#fafafa"></path><path d="M226.94,411.11c-.33-2.31.27-4.49,1.56-5.23.95-.55,1.54.09,1.78,1.76.33,2.31-.29,4.49-1.57,5.23C227.76,413.42,227.18,412.78,226.94,411.11Zm3.07-3.3c-.21-1.47-.69-2-1.48-1.58-1.12.64-1.62,2.62-1.32,4.73.21,1.46.67,2,1.47,1.56C229.79,411.88,230.31,409.9,230,407.81Z" style="fill:#fafafa"></path><path d="M231.35,404.31l.3-.18,2.26,3.91.47.88h0l0-1.07-.16-5.18.25-.21.22,6.91-.29.16L232,405.45l-.4-.74,0,0,0,1.18.16,5.1-.26.14Z" style="fill:#fafafa"></path><path d="M211.11,402.36c-.26.15-.47,0-.52-.37a.84.84,0,0,1,.34-.87c.27-.15.48,0,.53.37A.86.86,0,0,1,211.11,402.36Z" style="fill:#3E92CC"></path><path d="M213.77,398a1.91,1.91,0,0,1,.19-.48l.11-.06.17,1.18-.17.1s-.36-1-.94-.63c-.35.2-.63.9-.4,2.51s.65,1.91,1.11,1.65a1.83,1.83,0,0,0,.64-1.65l.11-.06a2,2,0,0,1-.82,1.91c-.91.53-1.6,0-1.8-1.41A2.91,2.91,0,0,1,213,398,.71.71,0,0,1,213.77,398Z" style="fill:#3E92CC"></path><path d="M217.18,398.72a2.17,2.17,0,0,1-.92,2.31c-.72.42-1.24.05-1.39-1a2.21,2.21,0,0,1,.92-2.32C216.51,397.33,217,397.7,217.18,398.72Zm-.74.43c-.17-1.21-.43-1.4-.63-1.28s-.37.55-.2,1.76.44,1.39.64,1.28S216.62,400.36,216.44,399.15Z" style="fill:#3E92CC"></path><path d="M217.33,397.26l0-.16.31-.17-.05-.31a1.67,1.67,0,0,1,.75-1.68c.48-.28.77-.08.82.27a.62.62,0,0,1-.26.65.75.75,0,0,1-.18.07l-.14-1a.26.26,0,0,0-.13,0c-.18.1-.28.36-.16,1.2l0,.31.7-.4,0,.16-.69.4.37,2.64.28-.06v.09l-1.22.71V400l.24-.24-.37-2.64Z" style="fill:#3E92CC"></path><path d="M219.23,396.16l0-.15.3-.18,0-.31a1.68,1.68,0,0,1,.75-1.68c.48-.28.77-.07.82.27a.64.64,0,0,1-.26.65.75.75,0,0,1-.18.07l-.14-1a.35.35,0,0,0-.13.05c-.18.1-.28.36-.16,1.2l0,.31.7-.41,0,.16-.7.4.38,2.64.28-.06v.1l-1.22.7v-.09l.24-.25-.37-2.64Z" style="fill:#3E92CC"></path><path d="M221.29,396.35a2.16,2.16,0,0,1,.84-2.26c.65-.38,1.12,0,1.22.64a1.73,1.73,0,0,1,0,.39,9.4,9.4,0,0,1-1.3,1c.14,1,.4,1.21.71,1a1.31,1.31,0,0,0,.52-1.17l.11-.07a1.51,1.51,0,0,1-.7,1.44C222,397.74,221.44,397.37,221.29,396.35Zm1.34-.84a2.3,2.3,0,0,0,0-.49c-.11-.75-.32-.9-.47-.81s-.29.44-.11,1.71A3.13,3.13,0,0,0,222.63,395.51Z" style="fill:#3E92CC"></path><path d="M223.78,394.91a2.18,2.18,0,0,1,.83-2.26c.66-.38,1.13,0,1.23.64a1.81,1.81,0,0,1,0,.4,8.66,8.66,0,0,1-1.31.95c.15,1,.41,1.21.72,1a1.31,1.31,0,0,0,.52-1.17l.1-.06a1.51,1.51,0,0,1-.69,1.44C224.45,396.31,223.93,395.94,223.78,394.91Zm1.34-.84a2.3,2.3,0,0,0,0-.49c-.11-.75-.32-.89-.47-.81s-.29.44-.11,1.72A4,4,0,0,0,225.12,394.07Z" style="fill:#3E92CC"></path><path d="M227.94,393.28c-.14-1-1.69-.13-1.91-1.62A1.72,1.72,0,0,1,227,390a.71.71,0,0,1,.75,0,1.73,1.73,0,0,1,.19-.48l.11-.06.17,1.18-.17.1s-.35-1-.94-.64a1,1,0,0,0-.32.93c.15,1.05,1.71.22,1.9,1.59a1.92,1.92,0,0,1-1,1.9.81.81,0,0,1-.85,0,1.44,1.44,0,0,1-.19.48l-.11.06-.17-1.18.18-.1s.35,1,1,.58A1,1,0,0,0,227.94,393.28Z" style="fill:#3E92CC"></path><path d="M230.5,390.36c-.08-.56-.29-.71-.44-.62s-.32.72-.32.72l.33,2.3.27-.06,0,.1-1.23.7v-.09l.25-.25-.57-4-.28.06v-.09l.57-.33c.26-.15.42,0,.47.33l.14,1a1.28,1.28,0,0,1,.51-.73c.5-.29.92,0,1,.54l.28,2,.28-.05V392l-.56.33c-.27.15-.42,0-.48-.34Z" style="fill:#3E92CC"></path><path d="M234.17,388.92a2.19,2.19,0,0,1-.92,2.31c-.72.41-1.25,0-1.39-1a2.17,2.17,0,0,1,.92-2.31C233.5,387.52,234,387.89,234.17,388.92Zm-.74.42c-.17-1.21-.44-1.39-.63-1.28s-.37.55-.2,1.76.44,1.4.63,1.28S233.6,390.55,233.43,389.34Z" style="fill:#3E92CC"></path><path d="M234.59,387.19l-.28.06v-.09l.39-.23a.37.37,0,0,1,.57.18,1.42,1.42,0,0,1,.55-.92c.5-.29,1,0,1.13,1.12a2,2,0,0,1-.72,2.2.54.54,0,0,1-.54,0l.17,1.21.28-.05v.09l-1.22.7v-.09l.25-.24Zm1.07,2.18a.34.34,0,0,0,.36.06c.22-.13.36-.48.18-1.69s-.38-1.32-.53-1.24-.32.73-.32.73Z" style="fill:#3E92CC"></path><path d="M237.9,386.89c-.26.15-.47,0-.52-.37a.84.84,0,0,1,.34-.87c.27-.15.48,0,.53.37A.86.86,0,0,1,237.9,386.89Z" style="fill:#3E92CC"></path><path d="M229.78,424.33a2,2,0,0,1-1.69-.52c-.7-.72-.29-3.48-.45-4.59-.23-1.63-1.2-1.52-1.2-1.52s1.67-.52,2.2.67,0,3.15.13,4A2.47,2.47,0,0,0,229.78,424.33Z" style="fill:#3E92CC"></path><path d="M229.64,418.36a1.8,1.8,0,0,1,.39,1.31c-.09,1-.62,2.37.28,3.22a3.33,3.33,0,0,1,.2-1.6,3.37,3.37,0,0,0,.09-2.45A1.2,1.2,0,0,0,229.64,418.36Z" style="fill:#3E92CC"></path><path d="M235.47,422.87a1.17,1.17,0,0,0-1.31.15l-.09-.48-8.94,5.1c0,.23,0,.45.07.67.55,4,1.82,4.82,3.69,4.7h0l-.25.14a.56.56,0,0,0-.21.51c0,.2.17.3.31.22l3.87-2.21a.53.53,0,0,0,.2-.51c0-.2-.16-.3-.3-.22l-.25.15a8.66,8.66,0,0,0,1.57-2.56,1.28,1.28,0,0,0,.3-.07,2.42,2.42,0,0,0,.94-.87,5.22,5.22,0,0,0,1-3.24A2,2,0,0,0,235.47,422.87Zm-.68,4.24a1.82,1.82,0,0,1-.72.65,11.19,11.19,0,0,0,.17-4.07c.23-.16.66-.39,1-.17a1.39,1.39,0,0,1,.37,1A4.27,4.27,0,0,1,234.79,427.11Z" style="fill:#fafafa"></path></g></g><g id="freepik--Clouds--inject-36"><g id="freepik--clouds--inject-36"><path d="M99.82,55.52l-8.3,4.79a10.32,10.32,0,0,0,.07-1.1v-2.4c0-4.28-3-6-6.71-3.88a13,13,0,0,0-4,3.85c-.6-5.38-4.82-7.38-9.95-4.43-5.54,3.21-10,11-10,17.39v3.6a9.5,9.5,0,0,0,.85,4.16l-6.89,4a8.21,8.21,0,0,0-3.72,6.45c0,2.37,1.66,3.33,3.72,2.15l45-26a8.22,8.22,0,0,0,3.72-6.44C103.54,55.29,101.87,54.33,99.82,55.52Z" style="fill:#ebebeb"></path><path d="M133.27,73.6,127,77.22a7.91,7.91,0,0,0,.06-.83V74.58c0-3.23-2.27-4.54-5.07-2.93a10,10,0,0,0-3,2.9c-.45-4.06-3.64-5.57-7.51-3.33a16.72,16.72,0,0,0-7.57,13.12v2.71a7.1,7.1,0,0,0,.64,3.14l-5.2,3a6.2,6.2,0,0,0-2.81,4.86c0,1.79,1.26,2.52,2.81,1.62l33.94-19.59a6.2,6.2,0,0,0,2.8-4.87C136.07,73.43,134.82,72.71,133.27,73.6Z" style="fill:#ebebeb"></path></g></g></svg>